# This file uses centimeters as units for non-parametric coordinates.

mtllib BG_Grave.mtl
g default
v -6.000000 0.000000 -0.950000
v 6.000000 0.000000 -0.950000
v 6.000000 0.000000 21.050003
v -6.000000 0.000000 21.050003
v -6.000000 5.099998 -0.950000
v 6.000000 5.099998 -0.950000
v 6.000000 5.099998 21.050003
v -6.000000 5.099998 21.050003
v -3.299999 5.099998 1.750000
v 3.299999 5.099998 1.750000
v 3.299999 5.099998 18.350006
v -3.299999 5.099998 18.350006
v -3.299999 4.099998 1.750000
v 3.299999 4.099998 1.750000
v 3.299999 4.099998 18.350006
v -3.299999 4.099998 18.350006
v -4.000000 7.139999 -3.360001
v 4.000000 7.139999 -3.360001
v 3.236069 9.491142 -3.360001
v 1.236068 10.944229 -3.360001
v -1.236068 10.944229 -3.360001
v -3.236069 9.491142 -3.360001
v -4.000000 0.000000 -3.360001
v 4.000000 0.000000 -3.360001
v 3.236069 9.491142 1.670000
v 1.236068 10.944229 1.670000
v 0.783780 9.552223 1.670000
v 2.051962 8.630836 1.670000
v -1.236068 10.944229 1.670000
v -0.783780 9.552223 1.670000
v -3.236069 9.491142 1.670000
v -2.051962 8.630836 1.670000
v -4.000000 7.139999 1.670000
v -2.608000 6.919529 1.670000
v -4.000000 0.000000 1.670000
v -2.608000 5.282001 1.670000
v 4.000000 0.000000 1.670000
v 2.608000 5.282001 1.670000
v 4.000000 7.139999 1.670000
v 2.608000 6.919529 1.670000
v -2.051962 8.630836 0.470000
v 2.051962 8.630836 0.470000
v 0.783780 9.552223 0.470000
v -0.783780 9.552223 0.470000
v 2.608000 6.919529 0.470000
v -2.608000 6.919529 0.470000
v -2.608000 5.282001 0.470000
v 2.608000 5.282001 0.470000
v -5.000000 7.139999 -3.360001
v 5.000000 7.139999 -3.360001
v -5.000000 0.000000 -3.360001
v 5.000000 0.000000 -3.360001
v -5.000000 7.139999 1.670000
v -5.000000 0.000000 1.670000
v 5.000000 0.000000 1.670000
v 5.000000 7.139999 1.670000
v -1.000000 10.690002 -2.080000
v -1.638455 22.401764 -1.390657
v 0.336921 22.709869 -1.336293
v 1.000000 10.690002 -2.080000
v -1.000000 10.690002 -1.740000
v -1.638455 22.342682 -1.055829
v 0.336921 22.650803 -1.001466
v 1.000000 10.690002 -1.740000
v -0.987688 18.355484 -2.104595
v -1.261449 20.057648 -1.804260
v 0.713928 20.365753 -1.749897
v 0.987688 18.663589 -2.050232
v -0.987688 18.296402 -1.769768
v -1.261449 19.998566 -1.469433
v 0.713928 20.306671 -1.415070
v 0.987688 18.604507 -1.715405
v 4.543365 19.159119 -1.617549
v 4.543365 19.218185 -1.952377
v 4.269608 20.920349 -1.652042
v 4.269608 20.861282 -1.317214
v -4.543365 17.800888 -2.202452
v -4.543365 17.741806 -1.867622
v -4.817127 19.443970 -1.567288
v -4.817127 19.503052 -1.902117
v 0.850808 19.514679 -1.900064
v -1.124568 19.206558 -1.954428
v -1.124568 19.147491 -1.619600
v 0.850808 19.455597 -1.565237
v 5.837646 20.233414 -1.427996
v 5.837646 20.292496 -1.762823
v -6.111408 18.428741 -2.091669
v -6.111408 18.369659 -1.756843
vt 0.151122 0.150528
vt 0.150200 0.486530
vt 0.007400 0.486138
vt 0.008321 0.150137
vt 0.150200 0.486530
vt 0.766201 0.488219
vt 0.765809 0.631019
vt 0.149808 0.629330
vt 0.766201 0.488219
vt 0.767125 0.152219
vt 0.909924 0.152612
vt 0.909001 0.488611
vt 0.767125 0.152219
vt 0.151122 0.150528
vt 0.151514 0.007728
vt 0.767516 0.009419
vt 0.151122 0.150528
vt 0.767125 0.152219
vt 0.691316 0.227612
vt 0.226514 0.226336
vt 0.767125 0.152219
vt 0.766201 0.488219
vt 0.690808 0.412412
vt 0.691316 0.227612
vt 0.766201 0.488219
vt 0.150200 0.486530
vt 0.226007 0.411137
vt 0.690808 0.412412
vt 0.150200 0.486530
vt 0.151122 0.150528
vt 0.226514 0.226336
vt 0.226007 0.411137
vt 0.690808 0.412412
vt 0.226007 0.411137
vt 0.226084 0.383137
vt 0.690885 0.384411
vt 0.226007 0.411137
vt 0.226514 0.226336
vt 0.254514 0.226413
vt 0.254007 0.411214
vt 0.226514 0.226336
vt 0.691316 0.227612
vt 0.691240 0.255612
vt 0.226437 0.254336
vt 0.691316 0.227612
vt 0.690808 0.412412
vt 0.662808 0.412334
vt 0.663316 0.227535
vt 0.295652 0.256851
vt 0.620316 0.258201
vt 0.620777 0.381500
vt 0.296113 0.380150
vt 0.311132 0.765705
vt 0.352467 0.822577
vt 0.296546 0.862849
vt 0.255211 0.805978
vt 0.255211 0.805978
vt 0.255013 0.876213
vt 0.186031 0.876131
vt 0.186230 0.805895
vt 0.186230 0.805895
vt 0.144573 0.862669
vt 0.088877 0.822262
vt 0.130534 0.765487
vt 0.130534 0.765487
vt 0.063326 0.787114
vt 0.042191 0.721812
vt 0.109399 0.700186
vt 0.332633 0.700462
vt 0.399712 0.722246
vt 0.378211 0.787490
vt 0.311132 0.765705
vt 0.311132 0.765705
vt 0.255211 0.805978
vt 0.242700 0.767319
vt 0.278159 0.741783
vt 0.255211 0.805978
vt 0.186230 0.805895
vt 0.198960 0.767266
vt 0.242700 0.767319
vt 0.186230 0.805895
vt 0.130534 0.765487
vt 0.163645 0.741643
vt 0.198960 0.767266
vt 0.130534 0.765487
vt 0.109399 0.700186
vt 0.148261 0.694112
vt 0.163645 0.741643
vt 0.109399 0.700186
vt 0.109575 0.639384
vt 0.148391 0.648650
vt 0.148261 0.694112
vt 0.109575 0.639384
vt 0.332806 0.639666
vt 0.293937 0.648833
vt 0.148391 0.648650
vt 0.332806 0.639666
vt 0.332633 0.700462
vt 0.293808 0.694294
vt 0.293937 0.648833
vt 0.332633 0.700462
vt 0.311132 0.765705
vt 0.278159 0.741783
vt 0.293808 0.694294
vt 0.427574 0.953815
vt 0.408100 0.980354
vt 0.373281 0.955025
vt 0.392755 0.928486
vt 0.505650 0.928784
vt 0.524983 0.955427
vt 0.490029 0.980571
vt 0.470696 0.953929
vt 0.470696 0.953929
vt 0.470609 0.986797
vt 0.427487 0.986683
vt 0.427574 0.953815
vt 0.521072 0.881952
vt 0.552440 0.892192
vt 0.537018 0.939024
vt 0.505650 0.928784
vt 0.392755 0.928486
vt 0.361333 0.938560
vt 0.346162 0.891646
vt 0.377585 0.881572
vt 0.377585 0.881572
vt 0.344574 0.881485
vt 0.344694 0.836633
vt 0.377704 0.836720
vt 0.377704 0.836720
vt 0.377792 0.803852
vt 0.521279 0.804233
vt 0.521191 0.837101
vt 0.521191 0.837101
vt 0.554202 0.837188
vt 0.554082 0.882040
vt 0.521072 0.881952
vt 0.392755 0.928486
vt 0.505650 0.928784
vt 0.470696 0.953929
vt 0.427574 0.953815
vt 0.521072 0.881952
vt 0.505650 0.928784
vt 0.392755 0.928486
vt 0.377585 0.881572
vt 0.377585 0.881572
vt 0.377704 0.836720
vt 0.521191 0.837101
vt 0.521072 0.881952
vt 0.109575 0.639384
vt 0.109399 0.700186
vt 0.081491 0.700151
vt 0.081669 0.639347
vt 0.685687 0.770111
vt 0.685547 0.700182
vt 0.713329 0.700199
vt 0.713468 0.770128
vt 0.685547 0.700182
vt 0.685427 0.639651
vt 0.713208 0.639668
vt 0.713329 0.700199
vt 0.463299 0.700044
vt 0.463439 0.769972
vt 0.435658 0.769955
vt 0.435518 0.700027
vt 0.332633 0.700462
vt 0.332806 0.639666
vt 0.360709 0.639700
vt 0.360536 0.700496
vt 0.463179 0.639513
vt 0.463299 0.700044
vt 0.435518 0.700027
vt 0.435398 0.639496
vt 0.081491 0.700151
vt 0.010885 0.700057
vt 0.011064 0.639253
vt 0.081669 0.639347
vt 0.360709 0.639700
vt 0.431304 0.639786
vt 0.431131 0.700582
vt 0.360536 0.700496
vt 0.608972 0.805282
vt 0.540293 0.805240
vt 0.484651 0.765042
vt 0.664454 0.765154
vt 0.463179 0.639513
vt 0.685427 0.639651
vt 0.685547 0.700182
vt 0.463299 0.700044
vt 0.664454 0.765154
vt 0.484651 0.765042
vt 0.463299 0.700044
vt 0.685547 0.700182
vt 0.856280 0.498222
vt 0.912619 0.498137
vt 0.907642 0.501658
vt 0.861275 0.501705
vt 0.860480 0.589563
vt 0.907179 0.589769
vt 0.907304 0.770722
vt 0.858873 0.770895
vt 0.861275 0.501705
vt 0.907642 0.501658
vt 0.906821 0.548627
vt 0.862346 0.548303
vt 0.852565 0.589478
vt 0.860480 0.589563
vt 0.858873 0.770895
vt 0.850613 0.770828
vt 0.856280 0.498222
vt 0.861275 0.501705
vt 0.862346 0.548303
vt 0.855300 0.548165
vt 0.907179 0.589769
vt 0.915072 0.589749
vt 0.915525 0.770592
vt 0.907304 0.770722
vt 0.907642 0.501658
vt 0.912619 0.498137
vt 0.913918 0.548443
vt 0.906821 0.548627
vt 0.843160 0.874703
vt 0.787746 0.874973
vt 0.786694 0.659133
vt 0.842109 0.658863
vt 0.843728 0.989970
vt 0.788311 0.990242
vt 0.787983 0.923464
vt 0.843400 0.923192
vt 0.942909 0.874209
vt 0.843160 0.874703
vt 0.843114 0.865282
vt 0.942863 0.864788
vt 0.943196 0.932119
vt 0.843446 0.932613
vt 0.843400 0.923192
vt 0.943150 0.922698
vt 0.687949 0.866041
vt 0.787699 0.865552
vt 0.787746 0.874973
vt 0.687995 0.875462
vt 0.688232 0.923952
vt 0.787983 0.923464
vt 0.788029 0.932885
vt 0.688278 0.933373
vt 0.906821 0.548627
vt 0.907000 0.569198
vt 0.861413 0.568933
vt 0.862346 0.548303
vt 0.907000 0.569198
vt 0.907179 0.589769
vt 0.860480 0.589563
vt 0.861413 0.568933
vt 0.787983 0.923464
vt 0.787864 0.899218
vt 0.843280 0.898947
vt 0.843400 0.923192
vt 0.787864 0.899218
vt 0.787746 0.874973
vt 0.843160 0.874703
vt 0.843280 0.898947
vt 0.843400 0.923192
vt 0.843280 0.898947
vt 0.943030 0.898454
vt 0.943150 0.922698
vt 0.843280 0.898947
vt 0.843160 0.874703
vt 0.942909 0.874209
vt 0.943030 0.898454
vt 0.996327 0.545190
vt 0.995249 0.567103
vt 0.907000 0.569198
vt 0.906821 0.548627
vt 0.995249 0.567103
vt 0.994171 0.589017
vt 0.907179 0.589769
vt 0.907000 0.569198
vt 0.943150 0.922698
vt 0.943030 0.898454
vt 0.952450 0.898407
vt 0.952570 0.922651
vt 0.943030 0.898454
vt 0.942909 0.874209
vt 0.952330 0.874162
vt 0.952450 0.898407
vt 0.862346 0.548303
vt 0.861413 0.568933
vt 0.772428 0.562868
vt 0.772771 0.540178
vt 0.861413 0.568933
vt 0.860480 0.589563
vt 0.772084 0.585557
vt 0.772428 0.562868
vt 0.688232 0.923952
vt 0.688113 0.899707
vt 0.787864 0.899218
vt 0.787983 0.923464
vt 0.688113 0.899707
vt 0.687995 0.875462
vt 0.787746 0.874973
vt 0.787864 0.899218
vt 0.678811 0.923998
vt 0.678693 0.899753
vt 0.688113 0.899707
vt 0.688232 0.923952
vt 0.678693 0.899753
vt 0.678574 0.875508
vt 0.687995 0.875462
vt 0.688113 0.899707
vn 0.000000 0.000000 -1.000000
vn 0.000000 0.000000 -1.000000
vn 0.000000 0.000000 -1.000000
vn 0.000000 0.000000 -1.000000
vn 1.000000 0.000000 0.000000
vn 1.000000 0.000000 0.000000
vn 1.000000 0.000000 0.000000
vn 1.000000 0.000000 0.000000
vn 0.000000 0.000000 1.000000
vn 0.000000 0.000000 1.000000
vn 0.000000 0.000000 1.000000
vn 0.000000 0.000000 1.000000
vn -1.000000 0.000000 0.000000
vn -1.000000 0.000000 0.000000
vn -1.000000 0.000000 0.000000
vn -1.000000 0.000000 0.000000
vn 0.000000 1.000000 0.000000
vn 0.000000 1.000000 0.000000
vn 0.000000 1.000000 0.000000
vn 0.000000 1.000000 0.000000
vn 0.000000 1.000000 0.000000
vn 0.000000 1.000000 0.000000
vn 0.000000 1.000000 0.000000
vn 0.000000 1.000000 0.000000
vn 0.000000 1.000000 0.000000
vn 0.000000 1.000000 0.000000
vn 0.000000 1.000000 0.000000
vn 0.000000 1.000000 0.000000
vn 0.000000 1.000000 0.000000
vn 0.000000 1.000000 0.000000
vn 0.000000 1.000000 0.000000
vn 0.000000 1.000000 0.000000
vn -1.000000 0.000000 0.000000
vn -1.000000 0.000000 0.000000
vn -1.000000 0.000000 0.000000
vn -1.000000 0.000000 0.000000
vn 0.000000 0.000000 1.000000
vn 0.000000 0.000000 1.000000
vn 0.000000 0.000000 1.000000
vn 0.000000 0.000000 1.000000
vn 1.000000 0.000000 0.000000
vn 1.000000 0.000000 0.000000
vn 1.000000 0.000000 0.000000
vn 1.000000 0.000000 0.000000
vn 0.000000 0.000000 -1.000000
vn 0.000000 0.000000 -1.000000
vn 0.000000 0.000000 -1.000000
vn 0.000000 0.000000 -1.000000
vn 0.000000 1.000000 0.000000
vn 0.000000 1.000000 0.000000
vn 0.000000 1.000000 0.000000
vn 0.000000 1.000000 0.000000
vn 0.587785 0.809017 0.000000
vn 0.587785 0.809017 0.000000
vn 0.587785 0.809017 0.000000
vn 0.587785 0.809017 0.000000
vn 0.000000 1.000000 0.000000
vn 0.000000 1.000000 0.000000
vn 0.000000 1.000000 0.000000
vn 0.000000 1.000000 0.000000
vn -0.587785 0.809017 0.000000
vn -0.587785 0.809017 0.000000
vn -0.587785 0.809017 0.000000
vn -0.587785 0.809017 0.000000
vn -0.951057 0.309017 0.000000
vn -0.951057 0.309017 0.000000
vn -0.951057 0.309017 0.000000
vn -0.951057 0.309017 0.000000
vn 0.951057 0.309017 0.000000
vn 0.951057 0.309017 0.000000
vn 0.951057 0.309017 0.000000
vn 0.951057 0.309017 0.000000
vn 0.000000 0.000000 1.000000
vn 0.000000 0.000000 1.000000
vn 0.000000 0.000000 1.000000
vn 0.000000 0.000000 1.000000
vn 0.000000 0.000000 1.000000
vn 0.000000 0.000000 1.000000
vn 0.000000 0.000000 1.000000
vn 0.000000 0.000000 1.000000
vn 0.000000 0.000000 1.000000
vn 0.000000 0.000000 1.000000
vn 0.000000 0.000000 1.000000
vn 0.000000 0.000000 1.000000
vn 0.000000 0.000000 1.000000
vn 0.000000 0.000000 1.000000
vn 0.000000 0.000000 1.000000
vn 0.000000 0.000000 1.000000
vn 0.000000 0.000000 1.000000
vn 0.000000 0.000000 1.000000
vn 0.000000 0.000000 1.000000
vn 0.000000 0.000000 1.000000
vn 0.000000 0.000000 1.000000
vn 0.000000 0.000000 1.000000
vn 0.000000 0.000000 1.000000
vn 0.000000 0.000000 1.000000
vn 0.000000 0.000000 1.000000
vn 0.000000 0.000000 1.000000
vn 0.000000 0.000000 1.000000
vn 0.000000 0.000000 1.000000
vn 0.000000 0.000000 1.000000
vn 0.000000 0.000000 1.000000
vn 0.000000 0.000000 1.000000
vn 0.000000 0.000000 1.000000
vn 0.587786 -0.809017 0.000000
vn 0.587786 -0.809017 0.000000
vn 0.587786 -0.809017 0.000000
vn 0.587786 -0.809017 0.000000
vn -0.587786 -0.809017 0.000000
vn -0.587786 -0.809017 0.000000
vn -0.587786 -0.809017 0.000000
vn -0.587786 -0.809017 0.000000
vn 0.000000 -1.000000 0.000000
vn 0.000000 -1.000000 0.000000
vn 0.000000 -1.000000 0.000000
vn 0.000000 -1.000000 0.000000
vn -0.951056 -0.309017 0.000000
vn -0.951056 -0.309017 0.000000
vn -0.951056 -0.309017 0.000000
vn -0.951056 -0.309017 0.000000
vn 0.951056 -0.309017 0.000000
vn 0.951056 -0.309017 0.000000
vn 0.951056 -0.309017 0.000000
vn 0.951056 -0.309017 0.000000
vn 1.000000 0.000000 0.000000
vn 1.000000 0.000000 0.000000
vn 1.000000 0.000000 0.000000
vn 1.000000 0.000000 0.000000
vn 0.000000 1.000000 0.000000
vn 0.000000 1.000000 0.000000
vn 0.000000 1.000000 0.000000
vn 0.000000 1.000000 0.000000
vn -1.000000 0.000000 0.000000
vn -1.000000 0.000000 0.000000
vn -1.000000 0.000000 0.000000
vn -1.000000 0.000000 0.000000
vn 0.000000 0.000000 1.000000
vn 0.000000 0.000000 1.000000
vn 0.000000 0.000000 1.000000
vn 0.000000 0.000000 1.000000
vn 0.000000 0.000000 1.000000
vn 0.000000 0.000000 1.000000
vn 0.000000 0.000000 1.000000
vn 0.000000 0.000000 1.000000
vn 0.000000 0.000000 1.000000
vn 0.000000 0.000000 1.000000
vn 0.000000 0.000000 1.000000
vn 0.000000 0.000000 1.000000
vn 0.000000 0.000000 1.000000
vn 0.000000 0.000000 1.000000
vn 0.000000 0.000000 1.000000
vn 0.000000 0.000000 1.000000
vn 0.000000 1.000000 0.000000
vn 0.000000 1.000000 0.000000
vn 0.000000 1.000000 0.000000
vn 0.000000 1.000000 0.000000
vn 0.000000 0.000000 -1.000000
vn 0.000000 0.000000 -1.000000
vn 0.000000 0.000000 -1.000000
vn 0.000000 0.000000 -1.000000
vn 0.000000 1.000000 0.000000
vn 0.000000 1.000000 0.000000
vn 0.000000 1.000000 0.000000
vn 0.000000 1.000000 0.000000
vn 0.000000 0.000000 1.000000
vn 0.000000 0.000000 1.000000
vn 0.000000 0.000000 1.000000
vn 0.000000 0.000000 1.000000
vn 0.000000 0.000000 -1.000000
vn 0.000000 0.000000 -1.000000
vn 0.000000 0.000000 -1.000000
vn 0.000000 0.000000 -1.000000
vn -1.000000 0.000000 0.000000
vn -1.000000 0.000000 0.000000
vn -1.000000 0.000000 0.000000
vn -1.000000 0.000000 0.000000
vn 1.000000 0.000000 0.000000
vn 1.000000 0.000000 0.000000
vn 1.000000 0.000000 0.000000
vn 1.000000 0.000000 0.000000
vn 0.000000 0.000000 -1.000000
vn 0.000000 0.000000 -1.000000
vn 0.000000 0.000000 -1.000000
vn 0.000000 0.000000 -1.000000
vn 0.000000 0.000000 -1.000000
vn 0.000000 0.000000 -1.000000
vn 0.000000 0.000000 -1.000000
vn 0.000000 0.000000 -1.000000
vn 0.000000 0.000000 -1.000000
vn 0.000000 0.000000 -1.000000
vn 0.000000 0.000000 -1.000000
vn 0.000000 0.000000 -1.000000
vn -0.156435 0.972664 0.171619
vn -0.156435 0.972664 0.171619
vn -0.156435 0.972664 0.171619
vn -0.156435 0.972664 0.171619
vn 0.028017 -0.003252 -0.999602
vn 0.028017 -0.003252 -0.999602
vn 0.028017 -0.003252 -0.999602
vn 0.028017 -0.003252 -0.999602
vn -0.000000 0.173759 -0.984788
vn -0.000000 0.173759 -0.984788
vn -0.000000 0.173759 -0.984788
vn -0.000000 0.173759 -0.984788
vn -0.999999 0.001620 0.000286
vn -0.999999 0.001620 0.000286
vn -0.999999 0.001620 0.000286
vn -0.999999 0.001620 0.000286
vn -0.987688 -0.154055 -0.027182
vn -0.987688 -0.154055 -0.027182
vn -0.987688 -0.154055 -0.027182
vn -0.987688 -0.154055 -0.027182
vn 0.999999 0.001543 0.000272
vn 0.999999 0.001543 0.000272
vn 0.999999 0.001543 0.000272
vn 0.999999 0.001543 0.000272
vn 0.987688 0.154055 0.027182
vn 0.987688 0.154055 0.027182
vn 0.987688 0.154055 0.027182
vn 0.987688 0.154055 0.027182
vn -0.027019 -0.003149 0.999630
vn -0.027019 -0.003149 0.999630
vn -0.027019 -0.003149 0.999630
vn -0.027019 -0.003149 0.999630
vn 0.000000 -0.173759 0.984788
vn 0.000000 -0.173759 0.984788
vn 0.000000 -0.173759 0.984788
vn 0.000000 -0.173759 0.984788
vn 0.156434 -0.972663 -0.171622
vn 0.156434 -0.972663 -0.171622
vn 0.156434 -0.972663 -0.171622
vn 0.156434 -0.972663 -0.171622
vn -0.156434 0.972664 0.171619
vn -0.156434 0.972664 0.171619
vn -0.156434 0.972664 0.171619
vn -0.156434 0.972664 0.171619
vn 0.156434 -0.972663 -0.171622
vn 0.156434 -0.972663 -0.171622
vn 0.156434 -0.972663 -0.171622
vn 0.156434 -0.972663 -0.171622
vn -0.156434 0.972664 0.171619
vn -0.156434 0.972664 0.171619
vn -0.156434 0.972664 0.171619
vn -0.156434 0.972664 0.171619
vn -0.000000 0.173759 -0.984788
vn -0.000000 0.173759 -0.984788
vn -0.000000 0.173759 -0.984788
vn -0.000000 0.173759 -0.984788
vn -0.000000 0.173759 -0.984788
vn -0.000000 0.173759 -0.984788
vn -0.000000 0.173759 -0.984788
vn -0.000000 0.173759 -0.984788
vn 0.000000 -0.173759 0.984788
vn 0.000000 -0.173759 0.984788
vn 0.000000 -0.173759 0.984788
vn 0.000000 -0.173759 0.984788
vn 0.000000 -0.173759 0.984788
vn 0.000000 -0.173759 0.984788
vn 0.000000 -0.173759 0.984788
vn 0.000000 -0.173759 0.984788
vn -0.000000 -0.173759 0.984788
vn -0.000000 -0.173759 0.984788
vn -0.000000 -0.173759 0.984788
vn -0.000000 -0.173759 0.984788
vn -0.000000 -0.173759 0.984788
vn -0.000000 -0.173759 0.984788
vn -0.000000 -0.173759 0.984788
vn -0.000000 -0.173759 0.984788
vn 0.000000 0.173759 -0.984788
vn 0.000000 0.173759 -0.984788
vn 0.000000 0.173759 -0.984788
vn 0.000000 0.173759 -0.984788
vn 0.000000 0.173759 -0.984788
vn 0.000000 0.173759 -0.984788
vn 0.000000 0.173759 -0.984788
vn 0.000000 0.173759 -0.984788
vn 0.376650 0.912264 0.160962
vn 0.376650 0.912264 0.160962
vn 0.376650 0.912264 0.160962
vn 0.376650 0.912264 0.160962
vn 0.644475 -0.752994 -0.132860
vn 0.644475 -0.752994 -0.132860
vn 0.644475 -0.752994 -0.132860
vn 0.644475 -0.752994 -0.132860
vn 0.000000 0.173760 -0.984788
vn 0.000000 0.173760 -0.984788
vn 0.000000 0.173760 -0.984788
vn 0.000000 0.173760 -0.984788
vn -0.000000 0.173759 -0.984788
vn -0.000000 0.173759 -0.984788
vn -0.000000 0.173759 -0.984788
vn -0.000000 0.173759 -0.984788
vn -0.000000 -0.173759 0.984788
vn -0.000000 -0.173759 0.984788
vn -0.000000 -0.173759 0.984788
vn -0.000000 -0.173759 0.984788
vn 0.000000 -0.173759 0.984788
vn 0.000000 -0.173759 0.984788
vn 0.000000 -0.173759 0.984788
vn 0.000000 -0.173759 0.984788
vn -0.644475 0.752994 0.132860
vn -0.644475 0.752994 0.132860
vn -0.644475 0.752994 0.132860
vn -0.644475 0.752994 0.132860
vn -0.376649 -0.912264 -0.160965
vn -0.376649 -0.912264 -0.160965
vn -0.376649 -0.912264 -0.160965
vn -0.376649 -0.912264 -0.160965
s off
g Grave_02
usemtl Grave_02SG
f 5/1/1 6/2/2 2/3/3 1/4/4
f 6/5/5 7/6/6 3/7/7 2/8/8
f 7/9/9 8/10/10 4/11/11 3/12/12
f 8/13/13 5/14/14 1/15/15 4/16/16
f 5/17/17 8/18/18 12/19/19 9/20/20
f 8/21/21 7/22/22 11/23/23 12/24/24
f 7/25/25 6/26/26 10/27/27 11/28/28
f 6/29/29 5/30/30 9/31/31 10/32/32
f 11/33/33 10/34/34 14/35/35 15/36/36
f 10/37/37 9/38/38 13/39/39 14/40/40
f 9/41/41 12/42/42 16/43/43 13/44/44
f 12/45/45 11/46/46 15/47/47 16/48/48
f 13/49/49 16/50/50 15/51/51 14/52/52
f 25/53/53 19/54/54 20/55/55 26/56/56
f 26/57/57 20/58/58 21/59/59 29/60/60
f 29/61/61 21/62/62 22/63/63 31/64/64
f 31/65/65 22/66/66 17/67/67 33/68/68
f 39/69/69 18/70/70 19/71/71 25/72/72
f 25/73/73 26/74/74 27/75/75 28/76/76
f 26/77/77 29/78/78 30/79/79 27/80/80
f 29/81/81 31/82/82 32/83/83 30/84/84
f 31/85/85 33/86/86 34/87/87 32/88/88
f 33/89/89 35/90/90 36/91/91 34/92/92
f 35/93/93 37/94/94 38/95/95 36/96/96
f 37/97/97 39/98/98 40/99/99 38/100/100
f 39/101/101 25/102/102 28/103/103 40/104/104
f 44/105/105 30/106/106 32/107/107 41/108/108
f 42/109/109 28/110/110 27/111/111 43/112/112
f 43/113/113 27/114/114 30/115/115 44/116/116
f 45/117/117 40/118/118 28/119/119 42/120/120
f 41/121/121 32/122/122 34/123/123 46/124/124
f 46/125/125 34/126/126 36/127/127 47/128/128
f 47/129/129 36/130/130 38/131/131 48/132/132
f 48/133/133 38/134/134 40/135/135 45/136/136
f 41/137/137 42/138/138 43/139/139 44/140/140
f 45/141/141 42/142/142 41/143/143 46/144/144
f 46/145/145 47/146/146 48/147/147 45/148/148
f 35/149/149 33/150/150 53/151/151 54/152/152
f 33/153/153 17/154/154 49/155/155 53/156/156
f 17/157/157 23/158/158 51/159/159 49/160/160
f 18/161/161 39/162/162 56/163/163 50/164/164
f 39/165/165 37/166/166 55/167/167 56/168/168
f 24/169/169 18/170/170 50/171/171 52/172/172
f 53/173/173 49/174/174 51/175/175 54/176/176
f 55/177/177 52/178/178 50/179/179 56/180/180
f 21/181/181 20/182/182 19/183/183 22/184/184
f 24/185/185 23/186/186 17/187/187 18/188/188
f 22/189/189 19/190/190 18/191/191 17/192/192
f 62/193/193 63/194/194 59/195/195 58/196/196
f 65/197/197 68/198/198 60/199/199 57/200/200
f 58/201/201 59/202/202 67/203/203 66/204/204
f 69/205/205 65/206/206 57/207/207 61/208/208
f 62/209/209 58/210/210 66/211/211 70/212/212
f 68/213/213 72/214/214 64/215/215 60/216/216
f 59/217/217 63/218/218 71/219/219 67/220/220
f 72/221/221 69/222/222 61/223/223 64/224/224
f 63/225/225 62/226/226 70/227/227 71/228/228
f 73/229/229 72/230/230 68/231/231 74/232/232
f 75/233/233 67/234/234 71/235/235 76/236/236
f 77/237/237 65/238/238 69/239/239 78/240/240
f 79/241/241 70/242/242 66/243/243 80/244/244
f 67/245/245 81/246/246 82/247/247 66/248/248
f 81/249/249 68/250/250 65/251/251 82/252/252
f 70/253/253 83/254/254 84/255/255 71/256/256
f 83/257/257 69/258/258 72/259/259 84/260/260
f 71/261/261 84/262/262 85/263/263 76/264/264
f 84/265/265 72/266/266 73/267/267 85/268/268
f 75/269/269 86/270/270 81/271/271 67/272/272
f 86/273/273 74/274/274 68/275/275 81/276/276
f 76/277/277 85/278/278 86/279/279 75/280/280
f 85/281/281 73/282/282 74/283/283 86/284/284
f 66/285/285 82/286/286 87/287/287 80/288/288
f 82/289/289 65/290/290 77/291/291 87/292/292
f 79/293/293 88/294/294 83/295/295 70/296/296
f 88/297/297 78/298/298 69/299/299 83/300/300
f 80/301/301 87/302/302 88/303/303 79/304/304
f 87/305/305 77/306/306 78/307/307 88/308/308
