# This file uses centimeters as units for non-parametric coordinates.

mtllib Fence_2.mtl
g default
v -16.850006 0.000000 -1.500000
v -13.849998 0.000000 -1.500000
v -13.849998 0.000000 1.500000
v -16.850006 0.000000 1.500000
v -16.850006 25.100006 -1.500000
v -13.849998 25.100006 -1.500000
v -13.849998 25.100006 1.500000
v -16.850006 25.100006 1.500000
v -19.150009 19.699997 1.300000
v -19.150009 22.199997 1.300000
v 16.100006 22.199997 1.300000
v 16.100006 19.699997 1.300000
v -19.150009 19.699997 1.950001
v -19.150009 22.199997 1.950001
v 16.100006 22.199997 1.950001
v 16.100006 19.699997 1.950001
v 13.802620 0.000068 -1.500000
v 10.806725 -0.156939 -1.500000
v 10.806725 -0.156939 1.500000
v 13.802620 0.000068 1.500000
v 12.577957 23.367996 -1.500000
v 9.582069 23.210983 -1.500000
v 9.582069 23.210983 1.500000
v 12.577957 23.367996 1.500000
v -21.614105 14.591919 1.300000
v -21.526855 17.090393 1.300000
v 16.847900 15.643814 1.300000
v 16.760651 13.145340 1.300000
v -21.614105 14.591919 1.950001
v -21.526855 17.090393 1.950001
v 16.847900 15.643814 1.950001
v 16.760651 13.145340 1.950001
v -17.674698 0.217841 1.300000
v -18.317520 2.633781 1.300000
v 15.644684 12.481972 1.300000
v 16.287506 10.066025 1.300000
v -17.674698 0.217841 1.950001
v -18.317520 2.633781 1.950001
v 15.644684 12.481972 1.950001
v 16.287506 10.066025 1.950001
v -4.858891 17.850006 1.300000
v -3.136667 20.350006 1.300000
v -3.136667 20.350006 1.950001
v -4.858891 17.850006 1.950001
vt 0.133685 0.865451
vt 0.012685 0.865451
vt 0.012685 0.013409
vt 0.133685 0.013409
vt 0.496685 0.865451
vt 0.375685 0.865451
vt 0.375685 0.013409
vt 0.496685 0.013409
vt 0.375685 0.865451
vt 0.254685 0.865451
vt 0.254685 0.013409
vt 0.375685 0.013409
vt 0.254685 0.865451
vt 0.133685 0.865451
vt 0.133685 0.013409
vt 0.254685 0.013409
vt 0.254685 0.986451
vt 0.254685 0.865451
vt 0.375685 0.865451
vt 0.375685 0.986451
vt 0.538910 0.970968
vt 0.616995 0.970969
vt 0.616994 0.986955
vt 0.538911 0.986953
vt 0.617004 0.029032
vt 0.538919 0.029032
vt 0.538919 0.013046
vt 0.617004 0.013046
vt 0.133685 0.865451
vt 0.133685 0.013409
vt 0.012685 0.013409
vt 0.012685 0.865451
vt 0.496685 0.865451
vt 0.496685 0.013409
vt 0.375685 0.013409
vt 0.375685 0.865451
vt 0.375685 0.865451
vt 0.375685 0.013409
vt 0.254685 0.013409
vt 0.254685 0.865451
vt 0.254685 0.865451
vt 0.254685 0.013409
vt 0.133685 0.013409
vt 0.133685 0.865451
vt 0.254685 0.986451
vt 0.375685 0.986451
vt 0.375685 0.865451
vt 0.254685 0.865451
vt 0.715382 0.970970
vt 0.637297 0.970969
vt 0.637306 0.029032
vt 0.715391 0.029032
vt 0.538910 0.970968
vt 0.616995 0.970969
vt 0.616994 0.986955
vt 0.538911 0.986953
vt 0.616995 0.970969
vt 0.617004 0.029032
vt 0.637306 0.029032
vt 0.637297 0.970969
vt 0.617004 0.029032
vt 0.538919 0.029032
vt 0.538919 0.013046
vt 0.617004 0.013046
vt 0.538919 0.029032
vt 0.538910 0.970968
vt 0.518608 0.970968
vt 0.518617 0.029032
vt 0.538910 0.970968
vt 0.538919 0.029032
vt 0.617004 0.029032
vt 0.616995 0.970969
vt 0.715382 0.970970
vt 0.637297 0.970969
vt 0.637306 0.029032
vt 0.715391 0.029032
vt 0.538910 0.970968
vt 0.616995 0.970969
vt 0.616994 0.986955
vt 0.538911 0.986953
vt 0.616995 0.970969
vt 0.617004 0.029032
vt 0.637306 0.029032
vt 0.637297 0.970969
vt 0.617004 0.029032
vt 0.538919 0.029032
vt 0.538919 0.013046
vt 0.617004 0.013046
vt 0.538919 0.029032
vt 0.538910 0.970968
vt 0.518608 0.970968
vt 0.518617 0.029032
vt 0.538910 0.970968
vt 0.538919 0.029032
vt 0.617004 0.029032
vt 0.616995 0.970969
vt 0.715391 0.029032
vt 0.715385 0.619499
vt 0.637301 0.577142
vt 0.637306 0.029032
vt 0.637297 0.970969
vt 0.637301 0.577142
vt 0.715385 0.619499
vt 0.715382 0.970970
vt 0.637306 0.029032
vt 0.637301 0.577142
vt 0.616999 0.577142
vt 0.617004 0.029032
vt 0.616995 0.970969
vt 0.616999 0.577142
vt 0.637301 0.577142
vt 0.637297 0.970969
vt 0.518608 0.970968
vt 0.518611 0.619498
vt 0.538913 0.619498
vt 0.538910 0.970968
vt 0.538919 0.029032
vt 0.538913 0.619498
vt 0.518611 0.619498
vt 0.518617 0.029032
vt 0.538913 0.619498
vt 0.538919 0.029032
vt 0.617004 0.029032
vt 0.616999 0.577142
vt 0.616999 0.577142
vt 0.616995 0.970969
vt 0.538910 0.970968
vt 0.538913 0.619498
vn 0.000000 0.000000 -1.000000
vn 0.000000 0.000000 -1.000000
vn 0.000000 0.000000 -1.000000
vn 0.000000 0.000000 -1.000000
vn 1.000000 0.000000 0.000000
vn 1.000000 0.000000 0.000000
vn 1.000000 0.000000 0.000000
vn 1.000000 0.000000 0.000000
vn 0.000000 0.000000 1.000000
vn 0.000000 0.000000 1.000000
vn 0.000000 0.000000 1.000000
vn 0.000000 0.000000 1.000000
vn -1.000000 0.000000 0.000000
vn -1.000000 0.000000 0.000000
vn -1.000000 0.000000 0.000000
vn -1.000000 0.000000 0.000000
vn 0.000000 1.000000 0.000000
vn 0.000000 1.000000 0.000000
vn 0.000000 1.000000 0.000000
vn 0.000000 1.000000 0.000000
vn -1.000000 0.000000 0.000000
vn -1.000000 0.000000 0.000000
vn -1.000000 0.000000 0.000000
vn -1.000000 0.000000 0.000000
vn 1.000000 0.000000 0.000000
vn 1.000000 0.000000 0.000000
vn 1.000000 0.000000 0.000000
vn 1.000000 0.000000 0.000000
vn 0.000000 0.000000 -1.000000
vn 0.000000 0.000000 -1.000000
vn 0.000000 0.000000 -1.000000
vn 0.000000 0.000000 -1.000000
vn -0.998630 -0.052336 0.000000
vn -0.998630 -0.052336 0.000000
vn -0.998630 -0.052336 0.000000
vn -0.998630 -0.052336 0.000000
vn 0.000000 0.000000 1.000000
vn 0.000000 0.000000 1.000000
vn 0.000000 0.000000 1.000000
vn 0.000000 0.000000 1.000000
vn 0.998630 0.052336 0.000000
vn 0.998630 0.052336 0.000000
vn 0.998630 0.052336 0.000000
vn 0.998630 0.052336 0.000000
vn -0.052336 0.998630 0.000000
vn -0.052336 0.998630 0.000000
vn -0.052336 0.998630 0.000000
vn -0.052336 0.998630 0.000000
vn 0.000000 0.000000 -1.000000
vn 0.000000 0.000000 -1.000000
vn 0.000000 0.000000 -1.000000
vn 0.000000 0.000000 -1.000000
vn -0.999391 0.034899 0.000000
vn -0.999391 0.034899 0.000000
vn -0.999391 0.034899 0.000000
vn -0.999391 0.034899 0.000000
vn 0.037669 0.999290 0.000000
vn 0.037669 0.999290 0.000000
vn 0.037669 0.999290 0.000000
vn 0.037669 0.999290 0.000000
vn 0.999391 -0.034900 0.000000
vn 0.999391 -0.034900 0.000000
vn 0.999391 -0.034900 0.000000
vn 0.999391 -0.034900 0.000000
vn -0.037669 -0.999290 0.000000
vn -0.037669 -0.999290 0.000000
vn -0.037669 -0.999290 0.000000
vn -0.037669 -0.999290 0.000000
vn 0.000000 0.000000 1.000000
vn 0.000000 0.000000 1.000000
vn 0.000000 0.000000 1.000000
vn 0.000000 0.000000 1.000000
vn 0.000000 0.000000 -1.000000
vn 0.000000 0.000000 -1.000000
vn 0.000000 0.000000 -1.000000
vn 0.000000 0.000000 -1.000000
vn -0.966376 -0.257133 0.000000
vn -0.966376 -0.257133 0.000000
vn -0.966376 -0.257133 0.000000
vn -0.966376 -0.257133 0.000000
vn -0.278502 0.960436 0.000000
vn -0.278502 0.960436 0.000000
vn -0.278502 0.960436 0.000000
vn -0.278502 0.960436 0.000000
vn 0.966376 0.257132 0.000000
vn 0.966376 0.257132 0.000000
vn 0.966376 0.257132 0.000000
vn 0.966376 0.257132 0.000000
vn 0.278502 -0.960436 0.000000
vn 0.278502 -0.960436 0.000000
vn 0.278502 -0.960436 0.000000
vn 0.278502 -0.960436 0.000000
vn 0.000000 0.000000 1.000000
vn 0.000000 0.000000 1.000000
vn 0.000000 0.000000 1.000000
vn 0.000000 0.000000 1.000000
vn 0.000000 0.000000 -1.000000
vn 0.000000 0.000000 -1.000000
vn 0.000000 0.000000 -1.000000
vn 0.000000 0.000000 -1.000000
vn 0.000000 0.000000 -1.000000
vn 0.000000 0.000000 -1.000000
vn 0.000000 0.000000 -1.000000
vn 0.000000 0.000000 -1.000000
vn -0.095729 0.995408 0.000000
vn 0.009571 0.999954 0.000000
vn 0.009571 0.999954 0.000000
vn -0.095729 0.995408 0.000000
vn 0.114765 0.993393 0.000000
vn 0.009571 0.999954 0.000000
vn 0.009571 0.999954 0.000000
vn 0.114765 0.993393 0.000000
vn -0.128380 -0.991725 0.000000
vn -0.020346 -0.999793 0.000000
vn -0.020346 -0.999793 0.000000
vn -0.128380 -0.991725 0.000000
vn 0.087926 -0.996127 0.000000
vn -0.020346 -0.999793 0.000000
vn -0.020346 -0.999793 0.000000
vn 0.087926 -0.996127 0.000000
vn 0.000000 0.000000 1.000000
vn 0.000000 0.000000 1.000000
vn 0.000000 0.000000 1.000000
vn 0.000000 0.000000 1.000000
vn 0.000000 0.000000 1.000000
vn 0.000000 0.000000 1.000000
vn 0.000000 0.000000 1.000000
vn 0.000000 0.000000 1.000000
s off
g Fence_02
usemtl Fence_02SG
f 5/1/1 6/2/2 2/3/3 1/4/4
f 6/5/5 7/6/6 3/7/7 2/8/8
f 7/9/9 8/10/10 4/11/11 3/12/12
f 8/13/13 5/14/14 1/15/15 4/16/16
f 5/17/17 8/18/18 7/19/19 6/20/20
f 13/21/21 14/22/22 10/23/23 9/24/24
f 15/25/25 16/26/26 12/27/27 11/28/28
f 21/29/29 17/30/30 18/31/31 22/32/32
f 22/33/33 18/34/34 19/35/35 23/36/36
f 23/37/37 19/38/38 20/39/39 24/40/40
f 24/41/41 20/42/42 17/43/43 21/44/44
f 21/45/45 22/46/46 23/47/47 24/48/48
f 25/49/49 26/50/50 27/51/51 28/52/52
f 29/53/53 30/54/54 26/55/55 25/56/56
f 30/57/57 31/58/58 27/59/59 26/60/60
f 31/61/61 32/62/62 28/63/63 27/64/64
f 32/65/65 29/66/66 25/67/67 28/68/68
f 29/69/69 32/70/70 31/71/71 30/72/72
f 33/73/73 34/74/74 35/75/75 36/76/76
f 37/77/77 38/78/78 34/79/79 33/80/80
f 38/81/81 39/82/82 35/83/83 34/84/84
f 39/85/85 40/86/86 36/87/87 35/88/88
f 40/89/89 37/90/90 33/91/91 36/92/92
f 37/93/93 40/94/94 39/95/95 38/96/96
f 12/97/97 41/98/98 42/99/99 11/100/100
f 10/101/101 42/102/102 41/103/103 9/104/104
f 11/105/105 42/106/106 43/107/107 15/108/108
f 14/109/109 43/110/110 42/111/111 10/112/112
f 9/113/113 41/114/114 44/115/115 13/116/116
f 16/117/117 44/118/118 41/119/119 12/120/120
f 44/121/121 16/122/122 15/123/123 43/124/124
f 43/125/125 14/126/126 13/127/127 44/128/128
