# This file uses centimeters as units for non-parametric coordinates.

mtllib tempBarricade.mtl
g default
v -5.000000 0.000000 5.000000
v 5.000000 0.000000 5.000000
v -5.000000 0.546565 5.000000
v 5.000000 0.546565 5.000000
v -5.000000 0.546565 -5.000000
v 5.000000 0.546565 -5.000000
v -5.000000 0.000000 -5.000000
v 5.000000 0.000000 -5.000000
v 3.629851 0.490448 4.639004
v 4.639004 0.490448 4.639004
v 3.629851 2.598521 4.639004
v 4.639004 2.598521 4.639004
v 3.629851 2.598521 3.629851
v 4.639004 2.598521 3.629851
v 3.629851 0.490448 3.629851
v 4.639004 0.490448 3.629851
v -4.134428 1.800633 4.413403
v 4.134428 1.800633 4.413403
v -4.134428 2.252580 4.413403
v 4.134428 2.252580 4.413403
v -4.134428 2.252580 3.820956
v 4.134428 2.252580 3.820956
v -4.134428 1.800633 3.820956
v 4.134428 1.800633 3.820956
v -4.134428 0.881016 4.413403
v 4.134428 0.881016 4.413403
v -4.134428 1.332962 4.413403
v 4.134428 1.332962 4.413403
v -4.134428 1.332962 3.820956
v 4.134428 1.332962 3.820956
v -4.134428 0.881016 3.820956
v 4.134428 0.881016 3.820956
v 4.639004 0.490448 -3.629852
v 4.639004 0.490448 -4.639004
v 4.639004 2.598521 -3.629852
v 4.639004 2.598521 -4.639004
v 3.629851 2.598521 -3.629851
v 3.629851 2.598521 -4.639005
v 3.629851 0.490448 -3.629851
v 3.629851 0.490448 -4.639005
v 4.413403 1.800633 4.134428
v 4.413403 1.800633 -4.134428
v 4.413403 2.252580 4.134428
v 4.413403 2.252580 -4.134428
v 3.820956 2.252580 4.134428
v 3.820956 2.252580 -4.134428
v 3.820956 1.800633 4.134428
v 3.820956 1.800633 -4.134428
v 4.413403 0.881016 4.134428
v 4.413403 0.881016 -4.134428
v 4.413403 1.332962 4.134428
v 4.413403 1.332962 -4.134428
v 3.820956 1.332962 4.134428
v 3.820956 1.332962 -4.134428
v 3.820956 0.881016 4.134428
v 3.820956 0.881016 -4.134428
v -4.639005 0.490448 3.629851
v -4.639004 0.490448 4.639004
v -4.639005 2.598521 3.629851
v -4.639004 2.598521 4.639004
v -3.629851 2.598521 3.629851
v -3.629852 2.598521 4.639004
v -3.629851 0.490448 3.629851
v -3.629852 0.490448 4.639004
v -4.413403 1.800633 -4.134428
v -4.413403 1.800633 4.134428
v -4.413403 2.252580 -4.134428
v -4.413403 2.252580 4.134428
v -3.820956 2.252580 -4.134428
v -3.820956 2.252580 4.134428
v -3.820956 1.800633 -4.134428
v -3.820956 1.800633 4.134428
v -4.413403 0.881016 -4.134428
v -4.413403 0.881016 4.134428
v -4.413403 1.332962 -4.134428
v -4.413403 1.332962 4.134428
v -3.820956 1.332962 -4.134428
v -3.820956 1.332962 4.134428
v -3.820956 0.881016 -4.134428
v -3.820956 0.881016 4.134428
v -3.636689 0.490448 -4.639004
v -4.645843 0.490448 -4.639004
v -3.636689 2.598521 -4.639004
v -4.645843 2.598521 -4.639004
v -3.636689 2.598521 -3.629851
v -4.645843 2.598521 -3.629851
v -3.636689 0.490448 -3.629851
v -4.645843 0.490448 -3.629851
v 4.127590 1.800633 -4.413403
v -4.141266 1.800633 -4.413403
v 4.127590 2.252580 -4.413403
v -4.141266 2.252580 -4.413403
v 4.127590 2.252580 -3.820956
v -4.141266 2.252580 -3.820956
v 4.127590 1.800633 -3.820956
v -4.141266 1.800633 -3.820956
v 4.127590 0.881016 -4.413403
v -4.141266 0.881016 -4.413403
v 4.127590 1.332962 -4.413403
v -4.141266 1.332962 -4.413403
v 4.127590 1.332962 -3.820956
v -4.141266 1.332962 -3.820956
v 4.127590 0.881016 -3.820956
v -4.141266 0.881016 -3.820956
v -2.777039 0.511129 2.777039
v 2.777039 0.511129 2.777039
v -2.777039 2.142530 2.777039
v 2.777039 2.142530 2.777039
v -2.777039 2.142530 -2.777039
v 2.777039 2.142530 -2.777039
v -2.777039 0.511129 -2.777039
v 2.777039 0.511129 -2.777039
vt 0.547170 0.477187
vt 0.547170 0.922813
vt 0.522813 0.922813
vt 0.522813 0.477187
vt 0.052830 0.922813
vt 0.052830 0.477187
vt 0.077187 0.477187
vt 0.077187 0.922813
vt 0.700000 0.830544
vt 0.744971 0.830544
vt 0.744971 0.924485
vt 0.700000 0.924485
vt 0.610059 0.830544
vt 0.655029 0.830544
vt 0.655029 0.924486
vt 0.610059 0.924486
vt 0.655030 0.830544
vt 0.700000 0.830544
vt 0.700000 0.924485
vt 0.655029 0.924486
vt 0.789941 0.924485
vt 0.744971 0.924485
vt 0.744971 0.830544
vt 0.789941 0.830544
vt 0.879860 0.984241
vt 0.879860 0.615759
vt 0.900000 0.615759
vt 0.900000 0.984241
vt 0.926401 0.984241
vt 0.926401 0.615759
vt 0.946541 0.615759
vt 0.946541 0.984241
vt 0.879860 0.984241
vt 0.879860 0.615759
vt 0.900000 0.615759
vt 0.900000 0.984241
vt 0.926401 0.984241
vt 0.926401 0.615759
vt 0.946541 0.615759
vt 0.946541 0.984241
vt 0.655029 0.830544
vt 0.700000 0.830544
vt 0.700000 0.924485
vt 0.655029 0.924485
vt 0.789941 0.924485
vt 0.744971 0.924485
vt 0.744971 0.830544
vt 0.789941 0.830544
vt 0.879860 0.984241
vt 0.879860 0.615759
vt 0.900000 0.615759
vt 0.900000 0.984241
vt 0.926401 0.984241
vt 0.926401 0.615759
vt 0.946541 0.615759
vt 0.946541 0.984241
vt 0.879860 0.984241
vt 0.879860 0.615759
vt 0.900000 0.615759
vt 0.900000 0.984241
vt 0.926401 0.984241
vt 0.926401 0.615759
vt 0.946540 0.615759
vt 0.946541 0.984241
vt 0.700000 0.830544
vt 0.744971 0.830545
vt 0.744969 0.924487
vt 0.699999 0.924486
vt 0.610058 0.830544
vt 0.655029 0.830544
vt 0.655029 0.924486
vt 0.610058 0.924486
vt 0.446452 0.103935
vt 0.446452 0.351439
vt 0.373752 0.351439
vt 0.373752 0.103935
vt 0.053548 0.351439
vt 0.053548 0.103935
vt 0.126248 0.103935
vt 0.126248 0.351439
vt 0.700000 0.969456
vt 0.655030 0.969456
vt 0.900000 0.984241
vt 0.900000 0.615759
vt 0.926401 0.615759
vt 0.926401 0.984241
vt 0.853459 0.984241
vt 0.853459 0.615759
vt 0.879860 0.615759
vt 0.879860 0.984241
vt 0.900000 0.984241
vt 0.900000 0.615759
vt 0.926401 0.615759
vt 0.926401 0.984241
vt 0.853459 0.984241
vt 0.853459 0.615759
vt 0.879860 0.615759
vt 0.879860 0.984241
vt 0.700000 0.969456
vt 0.655030 0.969456
vt 0.853459 0.984241
vt 0.853459 0.615759
vt 0.853459 0.984241
vt 0.853459 0.615759
vt 0.700000 0.969456
vt 0.655029 0.969456
vt 0.853459 0.984241
vt 0.853459 0.615759
vt 0.853459 0.984241
vt 0.853459 0.615759
vt 0.699999 0.969456
vt 0.655029 0.969456
vt 0.900000 0.984241
vt 0.900000 0.615759
vt 0.926401 0.615759
vt 0.926401 0.984241
vt 0.853459 0.984241
vt 0.853459 0.615759
vt 0.879860 0.615759
vt 0.879860 0.984241
vt 0.900000 0.984241
vt 0.900000 0.615759
vt 0.926401 0.615759
vt 0.926401 0.984241
vt 0.853459 0.984241
vt 0.853459 0.615759
vt 0.879860 0.615759
vt 0.879860 0.984241
vt 0.077187 0.452830
vt 0.522813 0.452830
vt 0.522813 0.947170
vt 0.077187 0.947170
vt 0.789941 0.924486
vt 0.789941 0.830544
vt 0.946541 0.615759
vt 0.946541 0.984241
vt 0.946541 0.615759
vt 0.946541 0.984241
vt 0.610059 0.830544
vt 0.610059 0.924485
vt 0.610059 0.830544
vt 0.610059 0.924485
vt 0.789939 0.924488
vt 0.789942 0.830546
vt 0.946541 0.615759
vt 0.946541 0.984241
vt 0.946541 0.615759
vt 0.946541 0.984241
vt 0.126248 0.031235
vt 0.373752 0.031235
vt 0.373752 0.424139
vt 0.126248 0.424139
vn 0.000000 0.000000 1.000000
vn 0.000000 0.000000 1.000000
vn 0.000000 0.000000 1.000000
vn 0.000000 0.000000 1.000000
vn 0.000000 1.000000 0.000000
vn 0.000000 1.000000 0.000000
vn 0.000000 1.000000 0.000000
vn 0.000000 1.000000 0.000000
vn 0.000000 0.000000 -1.000000
vn 0.000000 0.000000 -1.000000
vn 0.000000 0.000000 -1.000000
vn 0.000000 0.000000 -1.000000
vn 1.000000 0.000000 0.000000
vn 1.000000 0.000000 0.000000
vn 1.000000 0.000000 0.000000
vn 1.000000 0.000000 0.000000
vn -1.000000 0.000000 0.000000
vn -1.000000 0.000000 0.000000
vn -1.000000 0.000000 0.000000
vn -1.000000 0.000000 0.000000
vn 0.000000 0.000000 1.000000
vn 0.000000 0.000000 1.000000
vn 0.000000 0.000000 1.000000
vn 0.000000 0.000000 1.000000
vn 0.000000 1.000000 0.000000
vn 0.000000 1.000000 0.000000
vn 0.000000 1.000000 0.000000
vn 0.000000 1.000000 0.000000
vn 0.000000 0.000000 -1.000000
vn 0.000000 0.000000 -1.000000
vn 0.000000 0.000000 -1.000000
vn 0.000000 0.000000 -1.000000
vn 1.000000 0.000000 0.000000
vn 1.000000 0.000000 0.000000
vn 1.000000 0.000000 0.000000
vn 1.000000 0.000000 0.000000
vn -1.000000 0.000000 0.000000
vn -1.000000 0.000000 0.000000
vn -1.000000 0.000000 0.000000
vn -1.000000 0.000000 0.000000
vn 0.000000 0.000000 1.000000
vn 0.000000 0.000000 1.000000
vn 0.000000 0.000000 1.000000
vn 0.000000 0.000000 1.000000
vn 0.000000 1.000000 0.000000
vn 0.000000 1.000000 0.000000
vn 0.000000 1.000000 0.000000
vn 0.000000 1.000000 0.000000
vn 0.000000 0.000000 -1.000000
vn 0.000000 0.000000 -1.000000
vn 0.000000 0.000000 -1.000000
vn 0.000000 0.000000 -1.000000
vn 0.000000 -1.000000 0.000000
vn 0.000000 -1.000000 0.000000
vn 0.000000 -1.000000 0.000000
vn 0.000000 -1.000000 0.000000
vn 0.000000 0.000000 1.000000
vn 0.000000 0.000000 1.000000
vn 0.000000 0.000000 1.000000
vn 0.000000 0.000000 1.000000
vn 0.000000 1.000000 0.000000
vn 0.000000 1.000000 0.000000
vn 0.000000 1.000000 0.000000
vn 0.000000 1.000000 0.000000
vn 0.000000 0.000000 -1.000000
vn 0.000000 0.000000 -1.000000
vn 0.000000 0.000000 -1.000000
vn 0.000000 0.000000 -1.000000
vn 0.000000 -1.000000 0.000000
vn 0.000000 -1.000000 0.000000
vn 0.000000 -1.000000 0.000000
vn 0.000000 -1.000000 0.000000
vn 1.000000 0.000000 0.000000
vn 1.000000 0.000000 0.000000
vn 1.000000 0.000000 0.000000
vn 1.000000 0.000000 0.000000
vn 0.000000 1.000000 0.000000
vn 0.000000 1.000000 0.000000
vn 0.000000 1.000000 0.000000
vn 0.000000 1.000000 0.000000
vn -1.000000 0.000000 0.000000
vn -1.000000 0.000000 0.000000
vn -1.000000 0.000000 0.000000
vn -1.000000 0.000000 0.000000
vn 0.000000 0.000000 -1.000000
vn 0.000000 0.000000 -1.000000
vn 0.000000 0.000000 -1.000000
vn 0.000000 0.000000 -1.000000
vn 0.000000 0.000000 1.000000
vn 0.000000 0.000000 1.000000
vn 0.000000 0.000000 1.000000
vn 0.000000 0.000000 1.000000
vn 1.000000 0.000000 0.000000
vn 1.000000 0.000000 0.000000
vn 1.000000 0.000000 0.000000
vn 1.000000 0.000000 0.000000
vn 0.000000 1.000000 0.000000
vn 0.000000 1.000000 0.000000
vn 0.000000 1.000000 0.000000
vn 0.000000 1.000000 0.000000
vn -1.000000 0.000000 0.000000
vn -1.000000 0.000000 0.000000
vn -1.000000 0.000000 0.000000
vn -1.000000 0.000000 0.000000
vn 0.000000 -1.000000 0.000000
vn 0.000000 -1.000000 0.000000
vn 0.000000 -1.000000 0.000000
vn 0.000000 -1.000000 0.000000
vn 1.000000 0.000000 0.000000
vn 1.000000 0.000000 0.000000
vn 1.000000 0.000000 0.000000
vn 1.000000 0.000000 0.000000
vn 0.000000 1.000000 0.000000
vn 0.000000 1.000000 0.000000
vn 0.000000 1.000000 0.000000
vn 0.000000 1.000000 0.000000
vn -1.000000 0.000000 0.000000
vn -1.000000 0.000000 0.000000
vn -1.000000 0.000000 0.000000
vn -1.000000 0.000000 0.000000
vn 0.000000 -1.000000 0.000000
vn 0.000000 -1.000000 0.000000
vn 0.000000 -1.000000 0.000000
vn 0.000000 -1.000000 0.000000
vn -1.000000 0.000000 0.000000
vn -1.000000 0.000000 0.000000
vn -1.000000 0.000000 0.000000
vn -1.000000 0.000000 0.000000
vn 0.000000 1.000000 -0.000000
vn 0.000000 1.000000 -0.000000
vn 0.000000 1.000000 -0.000000
vn 0.000000 1.000000 -0.000000
vn 1.000000 0.000000 0.000000
vn 1.000000 0.000000 0.000000
vn 1.000000 0.000000 0.000000
vn 1.000000 0.000000 0.000000
vn 0.000000 0.000000 1.000000
vn 0.000000 0.000000 1.000000
vn 0.000000 0.000000 1.000000
vn 0.000000 0.000000 1.000000
vn 0.000000 0.000000 -1.000000
vn 0.000000 0.000000 -1.000000
vn 0.000000 0.000000 -1.000000
vn 0.000000 0.000000 -1.000000
vn -1.000000 0.000000 0.000000
vn -1.000000 0.000000 0.000000
vn -1.000000 0.000000 0.000000
vn -1.000000 0.000000 0.000000
vn 0.000000 1.000000 0.000000
vn 0.000000 1.000000 0.000000
vn 0.000000 1.000000 0.000000
vn 0.000000 1.000000 0.000000
vn 1.000000 0.000000 0.000000
vn 1.000000 0.000000 0.000000
vn 1.000000 0.000000 0.000000
vn 1.000000 0.000000 0.000000
vn 0.000000 -1.000000 0.000000
vn 0.000000 -1.000000 0.000000
vn 0.000000 -1.000000 0.000000
vn 0.000000 -1.000000 0.000000
vn -1.000000 0.000000 0.000000
vn -1.000000 0.000000 0.000000
vn -1.000000 0.000000 0.000000
vn -1.000000 0.000000 0.000000
vn 0.000000 1.000000 0.000000
vn 0.000000 1.000000 0.000000
vn 0.000000 1.000000 0.000000
vn 0.000000 1.000000 0.000000
vn 1.000000 0.000000 0.000000
vn 1.000000 0.000000 0.000000
vn 1.000000 0.000000 0.000000
vn 1.000000 0.000000 0.000000
vn 0.000000 -1.000000 0.000000
vn 0.000000 -1.000000 0.000000
vn 0.000000 -1.000000 0.000000
vn 0.000000 -1.000000 0.000000
vn 0.000000 0.000000 -1.000000
vn 0.000000 0.000000 -1.000000
vn 0.000000 0.000000 -1.000000
vn 0.000000 0.000000 -1.000000
vn 0.000000 1.000000 0.000000
vn 0.000000 1.000000 0.000000
vn 0.000000 1.000000 0.000000
vn 0.000000 1.000000 0.000000
vn 0.000000 0.000000 1.000000
vn 0.000000 0.000000 1.000000
vn 0.000000 0.000000 1.000000
vn 0.000000 0.000000 1.000000
vn -1.000000 0.000000 0.000000
vn -1.000000 0.000000 0.000000
vn -1.000000 0.000000 0.000000
vn -1.000000 0.000000 0.000000
vn 1.000000 0.000000 0.000000
vn 1.000000 0.000000 0.000000
vn 1.000000 0.000000 0.000000
vn 1.000000 0.000000 0.000000
vn 0.000000 0.000000 -1.000000
vn 0.000000 0.000000 -1.000000
vn 0.000000 0.000000 -1.000000
vn 0.000000 0.000000 -1.000000
vn 0.000000 1.000000 0.000000
vn 0.000000 1.000000 0.000000
vn 0.000000 1.000000 0.000000
vn 0.000000 1.000000 0.000000
vn 0.000000 0.000000 1.000000
vn 0.000000 0.000000 1.000000
vn 0.000000 0.000000 1.000000
vn 0.000000 0.000000 1.000000
vn 0.000000 -1.000000 0.000000
vn 0.000000 -1.000000 0.000000
vn 0.000000 -1.000000 0.000000
vn 0.000000 -1.000000 0.000000
vn 0.000000 0.000000 -1.000000
vn 0.000000 0.000000 -1.000000
vn 0.000000 0.000000 -1.000000
vn 0.000000 0.000000 -1.000000
vn 0.000000 1.000000 0.000000
vn 0.000000 1.000000 0.000000
vn 0.000000 1.000000 0.000000
vn 0.000000 1.000000 0.000000
vn 0.000000 0.000000 1.000000
vn 0.000000 0.000000 1.000000
vn 0.000000 0.000000 1.000000
vn 0.000000 0.000000 1.000000
vn 0.000000 -1.000000 0.000000
vn 0.000000 -1.000000 0.000000
vn 0.000000 -1.000000 0.000000
vn 0.000000 -1.000000 0.000000
vn 0.000000 0.000000 1.000000
vn 0.000000 0.000000 1.000000
vn 0.000000 0.000000 1.000000
vn 0.000000 0.000000 1.000000
vn 0.000000 1.000000 0.000000
vn 0.000000 1.000000 0.000000
vn 0.000000 1.000000 0.000000
vn 0.000000 1.000000 0.000000
vn 0.000000 0.000000 -1.000000
vn 0.000000 0.000000 -1.000000
vn 0.000000 0.000000 -1.000000
vn 0.000000 0.000000 -1.000000
vn 1.000000 0.000000 0.000000
vn 1.000000 0.000000 0.000000
vn 1.000000 0.000000 0.000000
vn 1.000000 0.000000 0.000000
vn -1.000000 0.000000 0.000000
vn -1.000000 0.000000 0.000000
vn -1.000000 0.000000 0.000000
vn -1.000000 0.000000 0.000000
s off
g Base2
usemtl initialShadingGroup
f 1/129/1 2/130/2 4/4/3 3/7/4
f 3/7/5 4/4/6 6/3/7 5/8/8
f 5/8/9 6/3/10 8/131/11 7/132/12
f 2/1/13 8/2/14 6/3/15 4/4/16
f 7/5/17 1/6/18 3/7/19 5/8/20
f 9/14/21 10/9/22 12/12/23 11/15/24
f 11/15/25 12/12/26 14/81/27 13/82/28
f 13/133/29 14/11/30 16/10/31 15/134/32
f 10/9/33 16/10/34 14/11/35 12/12/36
f 15/13/37 9/14/38 11/15/39 13/16/40
f 17/90/41 18/89/42 20/84/43 19/83/44
f 19/83/45 20/84/46 22/85/47 21/86/48
f 21/86/49 22/85/50 24/135/51 23/136/52
f 23/87/53 24/88/54 18/89/55 17/90/56
f 25/98/57 26/97/58 28/92/59 27/91/60
f 27/91/61 28/92/62 30/93/63 29/94/64
f 29/94/65 30/93/66 32/137/67 31/138/68
f 31/95/69 32/96/70 26/97/71 25/98/72
f 33/17/73 34/18/74 36/19/75 35/20/76
f 35/20/77 36/19/78 38/99/79 37/100/80
f 37/21/81 38/22/82 40/23/83 39/24/84
f 34/18/85 40/23/86 38/22/87 36/19/88
f 39/139/89 33/17/90 35/20/91 37/140/92
f 41/25/93 42/26/94 44/27/95 43/28/96
f 43/28/97 44/27/98 46/30/99 45/29/100
f 45/29/101 46/30/102 48/31/103 47/32/104
f 47/101/105 48/102/106 42/26/107 41/25/108
f 49/33/109 50/34/110 52/35/111 51/36/112
f 51/36/113 52/35/114 54/38/115 53/37/116
f 53/37/117 54/38/118 56/39/119 55/40/120
f 55/103/121 56/104/122 50/34/123 49/33/124
f 57/41/125 58/42/126 60/43/127 59/44/128
f 59/44/129 60/43/130 62/105/131 61/106/132
f 61/45/133 62/46/134 64/47/135 63/48/136
f 58/42/137 64/47/138 62/46/139 60/43/140
f 63/141/141 57/41/142 59/44/143 61/142/144
f 65/49/145 66/50/146 68/51/147 67/52/148
f 67/52/149 68/51/150 70/54/151 69/53/152
f 69/53/153 70/54/154 72/55/155 71/56/156
f 71/107/157 72/108/158 66/50/159 65/49/160
f 73/57/161 74/58/162 76/59/163 75/60/164
f 75/60/165 76/59/166 78/62/167 77/61/168
f 77/61/169 78/62/170 80/63/171 79/64/172
f 79/109/173 80/110/174 74/58/175 73/57/176
f 81/70/177 82/65/178 84/68/179 83/71/180
f 83/71/181 84/68/182 86/111/183 85/112/184
f 85/143/185 86/67/186 88/66/187 87/144/188
f 82/65/189 88/66/190 86/67/191 84/68/192
f 87/69/193 81/70/194 83/71/195 85/72/196
f 89/120/197 90/119/198 92/114/199 91/113/200
f 91/113/201 92/114/202 94/115/203 93/116/204
f 93/116/205 94/115/206 96/145/207 95/146/208
f 95/117/209 96/118/210 90/119/211 89/120/212
f 97/128/213 98/127/214 100/122/215 99/121/216
f 99/121/217 100/122/218 102/123/219 101/124/220
f 101/124/221 102/123/222 104/147/223 103/148/224
f 103/125/225 104/126/226 98/127/227 97/128/228
f 105/149/229 106/150/230 108/76/231 107/79/232
f 107/79/233 108/76/234 110/75/235 109/80/236
f 109/80/237 110/75/238 112/151/239 111/152/240
f 106/73/241 112/74/242 110/75/243 108/76/244
f 111/77/245 105/78/246 107/79/247 109/80/248
