# This file uses centimeters as units for non-parametric coordinates.

mtllib Tombstone_1.mtl
g default
v 4.764484 2.780293 -0.967500
v -4.764484 2.780293 -0.967500
v 4.764484 2.780293 1.552500
v -4.764484 2.780293 1.552500
v 4.764484 2.105291 -0.967500
v -4.764484 2.105291 -0.967500
v 4.764484 2.105291 1.552500
v -4.764484 2.105291 1.552500
v 5.716984 2.105291 -1.920000
v -5.716984 2.105291 -1.920000
v 5.716984 2.105291 2.504999
v -5.716984 2.105291 2.504999
v 5.716984 -0.032208 -1.920000
v -5.716984 -0.032208 -1.920000
v 5.716984 -0.032208 2.504999
v -5.716984 -0.032208 2.504999
v 0.000000 2.780293 0.292500
v -0.981626 2.316605 -0.634416
v -3.553509 19.397202 1.462819
v -1.575478 19.690628 1.498846
v 0.996407 2.610020 -0.598389
v -0.938863 15.462677 0.979720
v -0.643243 13.499397 0.738658
v -2.621275 13.205978 0.702631
v -2.916895 15.169266 0.943693
v 3.560074 14.122902 0.815216
v 3.264456 16.086197 1.056277
v -7.120209 14.545761 0.867136
v -6.824593 12.582474 0.626074
v -2.621275 12.981194 2.533382
v -0.643243 13.274605 2.569410
v -0.938863 15.237900 2.810471
v -2.916895 14.944473 2.774445
v -0.981626 2.091816 1.196336
v 0.996407 2.385231 1.232363
v -1.575478 19.465836 3.329597
v -3.553509 19.172424 3.293570
v 3.560074 13.898117 2.645967
v 3.264456 15.861404 2.887028
v -7.120209 14.320969 2.697887
v -6.824593 12.357681 2.456825
vt 0.521769 0.525332
vt 0.519136 0.213451
vt 0.548484 0.214879
vt 0.550628 0.523232
vt 0.519136 0.213451
vt 0.525824 0.021086
vt 0.551823 0.056335
vt 0.548484 0.214879
vt 0.513183 0.953592
vt 0.521441 0.588975
vt 0.549608 0.594714
vt 0.539365 0.953759
vt 0.521441 0.588975
vt 0.521769 0.525332
vt 0.550628 0.523232
vt 0.549608 0.594714
vt 0.550628 0.523232
vt 0.548484 0.214879
vt 0.583597 0.211773
vt 0.586118 0.537545
vt 0.548484 0.214879
vt 0.551823 0.056335
vt 0.580741 0.019484
vt 0.583597 0.211773
vt 0.539365 0.953759
vt 0.549608 0.594714
vt 0.584676 0.580437
vt 0.575060 0.989812
vt 0.549608 0.594714
vt 0.550628 0.523232
vt 0.586118 0.537545
vt 0.584676 0.580437
vt 0.584676 0.580437
vt 0.586118 0.537545
vt 0.655957 0.537923
vt 0.653098 0.587414
vt 0.586118 0.537545
vt 0.583597 0.211773
vt 0.653113 0.231786
vt 0.655957 0.537923
vt 0.583597 0.211773
vt 0.580741 0.019484
vt 0.653364 0.011666
vt 0.653113 0.231786
vt 0.575060 0.989812
vt 0.584676 0.580437
vt 0.653098 0.587414
vt 0.656899 0.992530
vt 0.486639 0.926700
vt 0.521441 0.588975
vt 0.513183 0.953592
vt 0.488105 0.600211
vt 0.521769 0.525332
vt 0.521441 0.588975
vt 0.487904 0.512547
vt 0.519136 0.213451
vt 0.521769 0.525332
vt 0.485052 0.225516
vt 0.525824 0.021086
vt 0.519136 0.213451
vt 0.761459 0.588423
vt 0.803957 0.588287
vt 0.805880 0.845096
vt 0.763382 0.845232
vt 0.894460 0.844814
vt 0.851962 0.844950
vt 0.850039 0.588140
vt 0.892537 0.588004
vt 0.763726 0.891531
vt 0.806225 0.891398
vt 0.806967 0.991109
vt 0.764468 0.991242
vt 0.850738 0.534578
vt 0.850553 0.577453
vt 0.804443 0.577595
vt 0.804628 0.534719
vt 0.895548 0.990830
vt 0.853049 0.990964
vt 0.852307 0.891253
vt 0.894806 0.891119
vt 0.851370 0.387970
vt 0.851554 0.345095
vt 0.949538 0.344792
vt 0.949354 0.387668
vt 0.949354 0.387668
vt 0.991878 0.387537
vt 0.991678 0.434027
vt 0.949154 0.434158
vt 0.949154 0.434158
vt 0.948970 0.477033
vt 0.850987 0.477336
vt 0.851170 0.434461
vt 0.805060 0.434603
vt 0.804874 0.477479
vt 0.706889 0.477776
vt 0.707076 0.434900
vt 0.707076 0.434900
vt 0.664552 0.435028
vt 0.664755 0.388539
vt 0.707278 0.388410
vt 0.707278 0.388410
vt 0.707464 0.345534
vt 0.805448 0.345236
vt 0.805262 0.388113
vt 0.851962 0.844950
vt 0.852307 0.891253
vt 0.806225 0.891398
vt 0.805880 0.845096
vt 0.805262 0.388113
vt 0.851370 0.387970
vt 0.851170 0.434461
vt 0.805060 0.434603
vt 0.805880 0.845096
vt 0.803957 0.588287
vt 0.850039 0.588140
vt 0.851962 0.844950
vt 0.851370 0.387970
vt 0.805262 0.388113
vt 0.806370 0.130267
vt 0.852477 0.130125
vt 0.806967 0.991109
vt 0.806225 0.891398
vt 0.852307 0.891253
vt 0.853049 0.990964
vt 0.850738 0.534578
vt 0.804628 0.534719
vt 0.805060 0.434603
vt 0.851170 0.434461
vt 0.805880 0.845096
vt 0.806225 0.891398
vt 0.708302 0.891706
vt 0.707957 0.845404
vt 0.851370 0.387970
vt 0.949354 0.387668
vt 0.949154 0.434158
vt 0.851170 0.434461
vt 0.852307 0.891253
vt 0.851962 0.844950
vt 0.949890 0.844642
vt 0.950234 0.890945
vt 0.805060 0.434603
vt 0.707076 0.434900
vt 0.707278 0.388410
vt 0.805262 0.388113
vn 0.000000 0.000000 -1.000000
vn 0.000000 0.000000 -1.000000
vn 0.000000 0.000000 -1.000000
vn 0.000000 0.000000 -1.000000
vn 1.000000 0.000000 0.000000
vn 1.000000 0.000000 0.000000
vn 1.000000 0.000000 0.000000
vn 1.000000 0.000000 0.000000
vn 0.000000 0.000000 1.000000
vn 0.000000 0.000000 1.000000
vn 0.000000 0.000000 1.000000
vn 0.000000 0.000000 1.000000
vn -1.000000 0.000000 0.000000
vn -1.000000 0.000000 0.000000
vn -1.000000 0.000000 0.000000
vn -1.000000 0.000000 0.000000
vn 0.000000 1.000000 0.000000
vn 0.000000 1.000000 0.000000
vn 0.000000 1.000000 0.000000
vn 0.000000 1.000000 0.000000
vn 0.000000 1.000000 0.000000
vn 0.000000 1.000000 0.000000
vn 0.000000 1.000000 0.000000
vn 0.000000 1.000000 0.000000
vn 0.000000 1.000000 0.000000
vn 0.000000 1.000000 0.000000
vn 0.000000 1.000000 0.000000
vn 0.000000 1.000000 0.000000
vn 0.000000 1.000000 0.000000
vn 0.000000 1.000000 0.000000
vn 0.000000 1.000000 0.000000
vn 0.000000 1.000000 0.000000
vn -1.000000 0.000000 0.000000
vn -1.000000 0.000000 0.000000
vn -1.000000 0.000000 0.000000
vn -1.000000 0.000000 0.000000
vn 0.000000 0.000000 -1.000000
vn 0.000000 0.000000 -1.000000
vn 0.000000 0.000000 -1.000000
vn 0.000000 0.000000 -1.000000
vn 1.000000 0.000000 0.000000
vn 1.000000 0.000000 0.000000
vn 1.000000 0.000000 0.000000
vn 1.000000 0.000000 0.000000
vn 0.000000 0.000000 1.000000
vn 0.000000 0.000000 1.000000
vn 0.000000 0.000000 1.000000
vn 0.000000 0.000000 1.000000
vn 0.000000 1.000000 0.000000
vn 0.000000 1.000000 0.000000
vn 0.000000 1.000000 0.000000
vn 0.000000 1.000000 0.000000
vn 0.000000 1.000000 0.000000
vn 0.000000 1.000000 0.000000
vn 0.000000 1.000000 0.000000
vn 0.000000 1.000000 0.000000
vn 0.000000 1.000000 0.000000
vn 0.000000 1.000000 0.000000
vn 0.000000 1.000000 0.000000
vn 0.000000 1.000000 0.000000
vn 0.989016 0.146708 0.018013
vn 0.989016 0.146708 0.018013
vn 0.989016 0.146708 0.018013
vn 0.989016 0.146708 0.018013
vn -0.989016 -0.146708 -0.018013
vn -0.989016 -0.146708 -0.018013
vn -0.989016 -0.146708 -0.018013
vn -0.989016 -0.146708 -0.018013
vn 0.989016 0.146708 0.018013
vn 0.989016 0.146708 0.018013
vn 0.989016 0.146708 0.018013
vn 0.989016 0.146708 0.018013
vn -0.147809 0.981644 0.120531
vn -0.147809 0.981644 0.120531
vn -0.147809 0.981644 0.120531
vn -0.147809 0.981644 0.120531
vn -0.989016 -0.146708 -0.018013
vn -0.989016 -0.146708 -0.018013
vn -0.989016 -0.146708 -0.018013
vn -0.989016 -0.146708 -0.018013
vn 0.147809 -0.981644 -0.120531
vn 0.147809 -0.981644 -0.120531
vn 0.147809 -0.981644 -0.120531
vn 0.147809 -0.981644 -0.120531
vn 0.989016 0.146708 0.018013
vn 0.989016 0.146708 0.018013
vn 0.989016 0.146708 0.018013
vn 0.989016 0.146708 0.018013
vn -0.147809 0.981644 0.120531
vn -0.147809 0.981644 0.120531
vn -0.147809 0.981644 0.120531
vn -0.147809 0.981644 0.120531
vn -0.147809 0.981644 0.120531
vn -0.147809 0.981644 0.120531
vn -0.147809 0.981644 0.120531
vn -0.147809 0.981644 0.120531
vn -0.989016 -0.146708 -0.018013
vn -0.989016 -0.146708 -0.018013
vn -0.989016 -0.146708 -0.018013
vn -0.989016 -0.146708 -0.018013
vn 0.147809 -0.981644 -0.120531
vn 0.147809 -0.981644 -0.120531
vn 0.147809 -0.981644 -0.120531
vn 0.147809 -0.981644 -0.120531
vn -0.000000 0.121869 -0.992546
vn -0.000000 0.121869 -0.992546
vn -0.000000 0.121869 -0.992546
vn -0.000000 0.121869 -0.992546
vn 0.000000 -0.121869 0.992546
vn 0.000000 -0.121869 0.992546
vn 0.000000 -0.121869 0.992546
vn 0.000000 -0.121869 0.992546
vn -0.000000 0.121869 -0.992546
vn -0.000000 0.121869 -0.992546
vn -0.000000 0.121869 -0.992546
vn -0.000000 0.121869 -0.992546
vn 0.000000 -0.121869 0.992546
vn 0.000000 -0.121869 0.992546
vn 0.000000 -0.121869 0.992546
vn 0.000000 -0.121869 0.992546
vn -0.000000 0.121869 -0.992546
vn -0.000000 0.121869 -0.992546
vn -0.000000 0.121869 -0.992546
vn -0.000000 0.121869 -0.992546
vn -0.000000 -0.121869 0.992546
vn -0.000000 -0.121869 0.992546
vn -0.000000 -0.121869 0.992546
vn -0.000000 -0.121869 0.992546
vn -0.000000 0.121869 -0.992546
vn -0.000000 0.121869 -0.992546
vn -0.000000 0.121869 -0.992546
vn -0.000000 0.121869 -0.992546
vn 0.000000 -0.121869 0.992546
vn 0.000000 -0.121869 0.992546
vn 0.000000 -0.121869 0.992546
vn 0.000000 -0.121869 0.992546
vn 0.000000 0.121869 -0.992546
vn 0.000000 0.121869 -0.992546
vn 0.000000 0.121869 -0.992546
vn 0.000000 0.121869 -0.992546
vn -0.000000 -0.121869 0.992546
vn -0.000000 -0.121869 0.992546
vn -0.000000 -0.121869 0.992546
vn -0.000000 -0.121869 0.992546
s off
g Tombstone_02
usemtl Tombstone_02SG
f 2/1/1 1/2/2 5/3/3 6/4/4
f 1/5/5 3/6/6 7/7/7 5/8/8
f 3/9/9 4/10/10 8/11/11 7/12/12
f 4/13/13 2/14/14 6/15/15 8/16/16
f 6/17/17 5/18/18 9/19/19 10/20/20
f 5/21/21 7/22/22 11/23/23 9/24/24
f 7/25/25 8/26/26 12/27/27 11/28/28
f 8/29/29 6/30/30 10/31/31 12/32/32
f 12/33/33 10/34/34 14/35/35 16/36/36
f 10/37/37 9/38/38 13/39/39 14/40/40
f 9/41/41 11/42/42 15/43/43 13/44/44
f 11/45/45 12/46/46 16/47/47 15/48/48
f 17/49/49 4/50/50 3/51/51
f 17/52/52 2/53/53 4/54/54
f 17/55/55 1/56/56 2/57/57
f 17/58/58 3/59/59 1/60/60
f 35/61/61 21/62/62 23/63/63 31/64/64
f 30/65/65 24/66/66 18/67/67 34/68/68
f 32/69/69 22/70/70 20/71/71 36/72/72
f 36/73/73 20/74/74 19/75/75 37/76/76
f 37/77/77 19/78/78 25/79/79 33/80/80
f 31/81/81 23/82/82 26/83/83 38/84/84
f 38/85/85 26/86/86 27/87/87 39/88/88
f 39/89/89 27/90/90 22/91/91 32/92/92
f 33/93/93 25/94/94 28/95/95 40/96/96
f 40/97/97 28/98/98 29/99/99 41/100/100
f 41/101/101 29/102/102 24/103/103 30/104/104
f 24/105/105 25/106/106 22/107/107 23/108/108
f 30/109/109 31/110/110 32/111/111 33/112/112
f 23/113/113 21/114/114 18/115/115 24/116/116
f 31/117/117 30/118/118 34/119/119 35/120/120
f 20/121/121 22/122/122 25/123/123 19/124/124
f 36/125/125 37/126/126 33/127/127 32/128/128
f 23/129/129 22/130/130 27/131/131 26/132/132
f 31/133/133 38/134/134 39/135/135 32/136/136
f 25/137/137 24/138/138 29/139/139 28/140/140
f 33/141/141 40/142/142 41/143/143 30/144/144
