# This file uses centimeters as units for non-parametric coordinates.

mtllib Tombstone_3.mtl
g default
v -1.590990 17.579010 0.855000
v 1.590990 17.579010 0.855000
v 1.590990 20.760986 0.855000
v -1.590990 20.760986 0.855000
v -0.900000 21.047211 0.855000
v -0.900000 20.069992 0.855000
v 0.900000 20.069992 0.855000
v 0.900000 18.270004 0.855000
v 0.900000 17.292786 0.855000
v -0.900000 18.270004 0.855000
v -0.900000 17.292786 0.855000
v -1.877209 18.270004 0.855000
v -1.877207 20.069992 0.855000
v 1.877209 18.270004 0.855000
v 1.877207 20.069992 0.855000
v 0.900000 21.047211 0.855000
v 0.900000 22.547211 0.855000
v -0.900000 22.547211 0.855000
v -1.165500 15.755295 0.855000
v 1.165500 15.755295 0.855000
v -3.377207 20.069992 0.855000
v -3.377209 18.270004 0.855000
v 3.377209 18.270004 0.855000
v 3.377207 20.069992 0.855000
v -2.191381 14.105293 0.855000
v 2.191381 14.105293 0.855000
v -4.066982 12.980293 0.855000
v 4.066982 12.980293 0.855000
v -0.900000 20.069992 -0.270000
v 0.900000 20.069992 -0.270000
v 0.900000 21.047211 -0.270000
v -0.900000 21.047211 -0.270000
v 1.877207 20.069992 -0.270000
v 1.590990 20.760986 -0.270000
v 0.900000 18.270004 -0.270000
v 1.877209 18.270004 -0.270000
v 0.900000 17.292786 -0.270000
v 1.590990 17.579010 -0.270000
v -0.900000 18.270004 -0.270000
v -0.900000 17.292786 -0.270000
v -1.877209 18.270004 -0.270000
v -1.590990 17.579010 -0.270000
v -1.877207 20.069992 -0.270000
v -1.590990 20.760986 -0.270000
v 0.900000 22.547211 -0.270000
v -0.900000 22.547211 -0.270000
v -1.165500 15.755295 -0.270000
v 1.165500 15.755295 -0.270000
v -3.377207 20.069992 -0.270000
v -3.377209 18.270004 -0.270000
v 3.377209 18.270004 -0.270000
v 3.377207 20.069992 -0.270000
v -2.191381 14.105293 -0.270000
v 2.191381 14.105293 -0.270000
v -4.066982 12.980293 -0.270000
v 4.066982 12.980293 -0.270000
v -4.764484 2.780293 1.552500
v 4.764484 2.780293 1.552500
v -4.764484 2.780293 -0.967500
v 4.764484 2.780293 -0.967500
v -4.764484 2.105291 1.552500
v 4.764484 2.105291 1.552500
v -4.764484 2.105291 -0.967500
v 4.764484 2.105291 -0.967500
v -5.716984 2.105291 2.504999
v 5.716984 2.105291 2.504999
v -5.716984 2.105291 -1.920000
v 5.716984 2.105291 -1.920000
v -5.716984 -0.032208 2.504999
v 5.716984 -0.032208 2.504999
v -5.716984 -0.032208 -1.920000
v 5.716984 -0.032208 -1.920000
v -4.066982 2.780293 0.855000
v -4.066982 2.780293 -0.270000
v 4.066982 2.780293 0.855000
v 4.066982 2.780293 -0.270000
vt 0.455014 0.813264
vt 0.455011 0.840298
vt 0.414620 0.840883
vt 0.414622 0.813849
vt 0.455011 0.840298
vt 0.455009 0.867332
vt 0.414617 0.867917
vt 0.414620 0.840883
vt 0.455035 0.585657
vt 0.455032 0.612705
vt 0.414624 0.613294
vt 0.414619 0.586247
vt 0.455032 0.612705
vt 0.455029 0.639748
vt 0.414627 0.640337
vt 0.414624 0.613294
vt 0.416173 0.641581
vt 0.416169 0.614511
vt 0.456583 0.613930
vt 0.456588 0.641002
vt 0.416169 0.614511
vt 0.416166 0.587443
vt 0.456576 0.586862
vt 0.456583 0.613930
vt 0.416177 0.869449
vt 0.416181 0.842383
vt 0.456592 0.841816
vt 0.456585 0.868883
vt 0.416181 0.842383
vt 0.416183 0.815316
vt 0.456596 0.814745
vt 0.456592 0.841816
vt 0.455009 0.867332
vt 0.455003 0.921550
vt 0.414612 0.922134
vt 0.414617 0.867917
vt 0.416148 0.988862
vt 0.416165 0.923728
vt 0.456571 0.923165
vt 0.456554 0.988300
vt 0.416165 0.923728
vt 0.416177 0.869449
vt 0.456585 0.868883
vt 0.456571 0.923165
vt 0.416166 0.587443
vt 0.416159 0.530980
vt 0.456565 0.530401
vt 0.456576 0.586862
vt 0.455038 0.529222
vt 0.455035 0.585657
vt 0.414619 0.586247
vt 0.414613 0.529812
vt 0.416183 0.815316
vt 0.416183 0.761026
vt 0.456599 0.760452
vt 0.456596 0.814745
vt 0.416183 0.761026
vt 0.416178 0.695875
vt 0.456596 0.695297
vt 0.456599 0.760452
vt 0.416178 0.695875
vt 0.416173 0.641581
vt 0.456588 0.641002
vt 0.456596 0.695297
vt 0.455029 0.639748
vt 0.455025 0.693977
vt 0.414628 0.694564
vt 0.414627 0.640337
vt 0.455025 0.693977
vt 0.455020 0.759044
vt 0.414626 0.759630
vt 0.414628 0.694564
vt 0.455020 0.759044
vt 0.455014 0.813264
vt 0.414622 0.813849
vt 0.414626 0.759630
vt 0.416159 0.530980
vt 0.416152 0.460677
vt 0.456556 0.460100
vt 0.456565 0.530401
vt 0.455042 0.458928
vt 0.455038 0.529222
vt 0.414613 0.529812
vt 0.414608 0.459518
vt 0.416152 0.460677
vt 0.416148 0.381539
vt 0.456551 0.380965
vt 0.456556 0.460100
vt 0.455045 0.379782
vt 0.455042 0.458928
vt 0.414608 0.459518
vt 0.414603 0.380372
vt 0.161774 0.867185
vt 0.248226 0.867185
vt 0.248226 0.915633
vt 0.161774 0.915633
vt 0.248512 0.867185
vt 0.248514 0.915631
vt 0.161508 0.915636
vt 0.161505 0.867189
vt 0.248226 0.867185
vt 0.295159 0.867185
vt 0.281413 0.901442
vt 0.248226 0.915633
vt 0.161505 0.867189
vt 0.161508 0.915636
vt 0.128106 0.901448
vt 0.114270 0.867191
vt 0.248226 0.777945
vt 0.295159 0.777945
vt 0.295159 0.867185
vt 0.248226 0.867185
vt 0.161501 0.777952
vt 0.161505 0.867189
vt 0.114270 0.867191
vt 0.114266 0.777954
vt 0.248226 0.777945
vt 0.248225 0.729497
vt 0.281413 0.743687
vt 0.295159 0.777945
vt 0.161501 0.777952
vt 0.114266 0.777954
vt 0.128099 0.743696
vt 0.161499 0.729505
vt 0.248226 0.777945
vt 0.161775 0.777945
vt 0.161775 0.729497
vt 0.248225 0.729497
vt 0.161501 0.777952
vt 0.161499 0.729505
vt 0.248506 0.729502
vt 0.248508 0.777948
vt 0.161775 0.777945
vt 0.114841 0.777944
vt 0.128588 0.743687
vt 0.161775 0.729497
vt 0.248508 0.777948
vt 0.248506 0.729502
vt 0.281907 0.743691
vt 0.295742 0.777946
vt 0.161775 0.777945
vt 0.161774 0.867185
vt 0.114840 0.867184
vt 0.114841 0.777944
vt 0.248508 0.777948
vt 0.295742 0.777946
vt 0.295746 0.867183
vt 0.248512 0.867185
vt 0.161774 0.867185
vt 0.161774 0.915633
vt 0.128587 0.901442
vt 0.114840 0.867184
vt 0.248512 0.867185
vt 0.295746 0.867183
vt 0.281913 0.901440
vt 0.248514 0.915631
vt 0.248226 0.867185
vt 0.161774 0.867185
vt 0.161775 0.777945
vt 0.248226 0.777945
vt 0.161505 0.867189
vt 0.161501 0.777952
vt 0.248508 0.777948
vt 0.248512 0.867185
vt 0.248226 0.915633
vt 0.248226 0.990000
vt 0.161774 0.990000
vt 0.161774 0.915633
vt 0.161508 0.915636
vt 0.248514 0.915631
vt 0.248517 0.989995
vt 0.161511 0.990000
vt 0.161775 0.729497
vt 0.149023 0.653272
vt 0.260977 0.653272
vt 0.248225 0.729497
vt 0.248506 0.729502
vt 0.161499 0.729505
vt 0.148663 0.653280
vt 0.261339 0.653278
vt 0.114840 0.867184
vt 0.042798 0.867184
vt 0.042798 0.777943
vt 0.114841 0.777944
vt 0.295746 0.867183
vt 0.295742 0.777946
vt 0.368247 0.777943
vt 0.368251 0.867180
vt 0.295159 0.777945
vt 0.367202 0.777945
vt 0.367202 0.867185
vt 0.295159 0.867185
vt 0.114266 0.777954
vt 0.114270 0.867191
vt 0.041765 0.867195
vt 0.041761 0.777958
vt 0.149023 0.653272
vt 0.099751 0.571469
vt 0.310248 0.571469
vt 0.260977 0.653272
vt 0.261339 0.653278
vt 0.148663 0.653280
vt 0.099072 0.571476
vt 0.310929 0.571476
vt 0.099751 0.571469
vt 0.009669 0.515694
vt 0.400331 0.515695
vt 0.310248 0.571469
vt 0.310929 0.571476
vt 0.099072 0.571476
vt 0.008407 0.515700
vt 0.401594 0.515700
vt 0.521769 0.525332
vt 0.519136 0.213451
vt 0.548484 0.214879
vt 0.550628 0.523232
vt 0.519136 0.213451
vt 0.525824 0.021086
vt 0.551823 0.056335
vt 0.548484 0.214879
vt 0.513183 0.953592
vt 0.521441 0.588975
vt 0.549608 0.594714
vt 0.539365 0.953759
vt 0.521441 0.588975
vt 0.521769 0.525332
vt 0.550628 0.523232
vt 0.549608 0.594714
vt 0.550628 0.523232
vt 0.548484 0.214879
vt 0.583597 0.211773
vt 0.586118 0.537545
vt 0.548484 0.214879
vt 0.551823 0.056335
vt 0.580741 0.019484
vt 0.583597 0.211773
vt 0.539365 0.953759
vt 0.549608 0.594714
vt 0.584676 0.580437
vt 0.575060 0.989812
vt 0.549608 0.594714
vt 0.550628 0.523232
vt 0.586118 0.537545
vt 0.584676 0.580437
vt 0.584676 0.580437
vt 0.586118 0.537545
vt 0.655957 0.537923
vt 0.653098 0.587414
vt 0.586118 0.537545
vt 0.583597 0.211773
vt 0.653113 0.231786
vt 0.655957 0.537923
vt 0.583597 0.211773
vt 0.580741 0.019484
vt 0.653364 0.011666
vt 0.653113 0.231786
vt 0.575060 0.989812
vt 0.584676 0.580437
vt 0.653098 0.587414
vt 0.656899 0.992530
vt 0.416148 0.381539
vt 0.416149 0.012463
vt 0.456552 0.011890
vt 0.456551 0.380965
vt 0.455045 0.010630
vt 0.455045 0.379782
vt 0.414603 0.380372
vt 0.414602 0.011220
vt 0.009669 0.515694
vt 0.009669 0.010000
vt 0.400331 0.010000
vt 0.400331 0.515695
vt 0.401594 0.515700
vt 0.008407 0.515700
vt 0.008407 0.010000
vt 0.401594 0.010000
vt 0.486639 0.926700
vt 0.488105 0.600211
vt 0.521441 0.588975
vt 0.513183 0.953592
vt 0.488105 0.600211
vt 0.487904 0.512547
vt 0.521769 0.525332
vt 0.521441 0.588975
vt 0.487904 0.512547
vt 0.485052 0.225516
vt 0.519136 0.213451
vt 0.521769 0.525332
vt 0.485052 0.225516
vt 0.472153 0.014359
vt 0.525824 0.021086
vt 0.519136 0.213451
vn 0.923879 0.382684 0.000000
vn 0.923879 0.382684 0.000000
vn 0.923879 0.382684 0.000000
vn 0.923879 0.382684 0.000000
vn 0.382685 0.923879 0.000000
vn 0.382685 0.923879 0.000000
vn 0.382685 0.923879 0.000000
vn 0.382685 0.923879 0.000000
vn 0.382684 -0.923879 0.000000
vn 0.382684 -0.923879 0.000000
vn 0.382684 -0.923879 0.000000
vn 0.382684 -0.923879 0.000000
vn 0.923880 -0.382683 0.000000
vn 0.923880 -0.382683 0.000000
vn 0.923880 -0.382683 0.000000
vn 0.923880 -0.382683 0.000000
vn -0.923880 -0.382683 0.000000
vn -0.923880 -0.382683 0.000000
vn -0.923880 -0.382683 0.000000
vn -0.923880 -0.382683 0.000000
vn -0.382684 -0.923879 0.000000
vn -0.382684 -0.923879 0.000000
vn -0.382684 -0.923879 0.000000
vn -0.382684 -0.923879 0.000000
vn -0.382685 0.923879 0.000000
vn -0.382685 0.923879 0.000000
vn -0.382685 0.923879 0.000000
vn -0.382685 0.923879 0.000000
vn -0.923879 0.382684 0.000000
vn -0.923879 0.382684 0.000000
vn -0.923879 0.382684 0.000000
vn -0.923879 0.382684 0.000000
vn 1.000000 0.000000 0.000000
vn 1.000000 0.000000 0.000000
vn 1.000000 0.000000 0.000000
vn 1.000000 0.000000 0.000000
vn 0.000000 1.000000 0.000000
vn 0.000000 1.000000 0.000000
vn 0.000000 1.000000 0.000000
vn 0.000000 1.000000 0.000000
vn -1.000000 0.000000 0.000000
vn -1.000000 0.000000 0.000000
vn -1.000000 0.000000 0.000000
vn -1.000000 0.000000 0.000000
vn -0.985416 0.170165 0.000000
vn -0.985416 0.170165 0.000000
vn -0.985416 0.170165 0.000000
vn -0.985416 0.170165 0.000000
vn 0.985416 0.170165 0.000000
vn 0.985416 0.170165 0.000000
vn 0.985416 0.170165 0.000000
vn 0.985416 0.170165 0.000000
vn 0.000000 1.000000 0.000000
vn 0.000000 1.000000 0.000000
vn 0.000000 1.000000 0.000000
vn 0.000000 1.000000 0.000000
vn -1.000000 0.000000 0.000000
vn -1.000000 0.000000 0.000000
vn -1.000000 0.000000 0.000000
vn -1.000000 0.000000 0.000000
vn 0.000000 -1.000000 0.000000
vn 0.000000 -1.000000 0.000000
vn 0.000000 -1.000000 0.000000
vn 0.000000 -1.000000 0.000000
vn 0.000000 -1.000000 0.000000
vn 0.000000 -1.000000 0.000000
vn 0.000000 -1.000000 0.000000
vn 0.000000 -1.000000 0.000000
vn 1.000000 0.000000 0.000000
vn 1.000000 0.000000 0.000000
vn 1.000000 0.000000 0.000000
vn 1.000000 0.000000 0.000000
vn 0.000000 1.000000 0.000000
vn 0.000000 1.000000 0.000000
vn 0.000000 1.000000 0.000000
vn 0.000000 1.000000 0.000000
vn -0.849238 0.528011 0.000000
vn -0.849238 0.528011 0.000000
vn -0.849238 0.528011 0.000000
vn -0.849238 0.528011 0.000000
vn 0.849238 0.528011 0.000000
vn 0.849238 0.528011 0.000000
vn 0.849238 0.528011 0.000000
vn 0.849238 0.528011 0.000000
vn -0.514374 0.857566 0.000000
vn -0.514374 0.857566 0.000000
vn -0.514374 0.857566 0.000000
vn -0.514374 0.857566 0.000000
vn 0.514374 0.857566 0.000000
vn 0.514374 0.857566 0.000000
vn 0.514374 0.857566 0.000000
vn 0.514374 0.857566 0.000000
vn 0.000000 0.000000 1.000000
vn 0.000000 0.000000 1.000000
vn 0.000000 0.000000 1.000000
vn 0.000000 0.000000 1.000000
vn 0.000000 0.000000 -1.000000
vn 0.000000 0.000000 -1.000000
vn 0.000000 0.000000 -1.000000
vn 0.000000 0.000000 -1.000000
vn 0.000000 0.000000 1.000000
vn 0.000000 0.000000 1.000000
vn 0.000000 0.000000 1.000000
vn 0.000000 0.000000 1.000000
vn 0.000000 0.000000 -1.000000
vn 0.000000 0.000000 -1.000000
vn 0.000000 0.000000 -1.000000
vn 0.000000 0.000000 -1.000000
vn 0.000000 0.000000 1.000000
vn 0.000000 0.000000 1.000000
vn 0.000000 0.000000 1.000000
vn 0.000000 0.000000 1.000000
vn 0.000000 0.000000 -1.000000
vn 0.000000 0.000000 -1.000000
vn 0.000000 0.000000 -1.000000
vn 0.000000 0.000000 -1.000000
vn 0.000000 0.000000 1.000000
vn 0.000000 0.000000 1.000000
vn 0.000000 0.000000 1.000000
vn 0.000000 0.000000 1.000000
vn 0.000000 0.000000 -1.000000
vn 0.000000 0.000000 -1.000000
vn 0.000000 0.000000 -1.000000
vn 0.000000 0.000000 -1.000000
vn 0.000000 0.000000 1.000000
vn 0.000000 0.000000 1.000000
vn 0.000000 0.000000 1.000000
vn 0.000000 0.000000 1.000000
vn 0.000000 0.000000 -1.000000
vn 0.000000 0.000000 -1.000000
vn 0.000000 0.000000 -1.000000
vn 0.000000 0.000000 -1.000000
vn 0.000000 0.000000 1.000000
vn 0.000000 0.000000 1.000000
vn 0.000000 0.000000 1.000000
vn 0.000000 0.000000 1.000000
vn 0.000000 0.000000 -1.000000
vn 0.000000 0.000000 -1.000000
vn 0.000000 0.000000 -1.000000
vn 0.000000 0.000000 -1.000000
vn 0.000000 0.000000 1.000000
vn 0.000000 0.000000 1.000000
vn 0.000000 0.000000 1.000000
vn 0.000000 0.000000 1.000000
vn 0.000000 0.000000 -1.000000
vn 0.000000 0.000000 -1.000000
vn 0.000000 0.000000 -1.000000
vn 0.000000 0.000000 -1.000000
vn 0.000000 0.000000 1.000000
vn 0.000000 0.000000 1.000000
vn 0.000000 0.000000 1.000000
vn 0.000000 0.000000 1.000000
vn 0.000000 0.000000 -1.000000
vn 0.000000 0.000000 -1.000000
vn 0.000000 0.000000 -1.000000
vn 0.000000 0.000000 -1.000000
vn 0.000000 0.000000 1.000000
vn 0.000000 0.000000 1.000000
vn 0.000000 0.000000 1.000000
vn 0.000000 0.000000 1.000000
vn 0.000000 0.000000 -1.000000
vn 0.000000 0.000000 -1.000000
vn 0.000000 0.000000 -1.000000
vn 0.000000 0.000000 -1.000000
vn 0.000000 0.000000 1.000000
vn 0.000000 0.000000 1.000000
vn 0.000000 0.000000 1.000000
vn 0.000000 0.000000 1.000000
vn 0.000000 0.000000 -1.000000
vn 0.000000 0.000000 -1.000000
vn 0.000000 0.000000 -1.000000
vn 0.000000 0.000000 -1.000000
vn 0.000000 0.000000 1.000000
vn 0.000000 0.000000 1.000000
vn 0.000000 0.000000 1.000000
vn 0.000000 0.000000 1.000000
vn 0.000000 0.000000 -1.000000
vn 0.000000 0.000000 -1.000000
vn 0.000000 0.000000 -1.000000
vn 0.000000 0.000000 -1.000000
vn 0.000000 0.000000 1.000000
vn 0.000000 0.000000 1.000000
vn 0.000000 0.000000 1.000000
vn 0.000000 0.000000 1.000000
vn 0.000000 0.000000 -1.000000
vn 0.000000 0.000000 -1.000000
vn 0.000000 0.000000 -1.000000
vn 0.000000 0.000000 -1.000000
vn 0.000000 0.000000 1.000000
vn 0.000000 0.000000 1.000000
vn 0.000000 0.000000 1.000000
vn 0.000000 0.000000 1.000000
vn 0.000000 0.000000 -1.000000
vn 0.000000 0.000000 -1.000000
vn 0.000000 0.000000 -1.000000
vn 0.000000 0.000000 -1.000000
vn 0.000000 0.000000 1.000000
vn 0.000000 0.000000 1.000000
vn 0.000000 0.000000 1.000000
vn 0.000000 0.000000 1.000000
vn 0.000000 0.000000 -1.000000
vn 0.000000 0.000000 -1.000000
vn 0.000000 0.000000 -1.000000
vn 0.000000 0.000000 -1.000000
vn 0.000000 0.000000 1.000000
vn 0.000000 0.000000 1.000000
vn 0.000000 0.000000 1.000000
vn 0.000000 0.000000 1.000000
vn 0.000000 0.000000 -1.000000
vn 0.000000 0.000000 -1.000000
vn 0.000000 0.000000 -1.000000
vn 0.000000 0.000000 -1.000000
vn 0.000000 0.000000 1.000000
vn 0.000000 0.000000 1.000000
vn 0.000000 0.000000 1.000000
vn 0.000000 0.000000 1.000000
vn -1.000000 0.000000 0.000000
vn -1.000000 0.000000 0.000000
vn -1.000000 0.000000 0.000000
vn -1.000000 0.000000 0.000000
vn 0.000000 0.000000 -1.000000
vn 0.000000 0.000000 -1.000000
vn 0.000000 0.000000 -1.000000
vn 0.000000 0.000000 -1.000000
vn 1.000000 0.000000 0.000000
vn 1.000000 0.000000 0.000000
vn 1.000000 0.000000 0.000000
vn 1.000000 0.000000 0.000000
vn 0.000000 1.000000 0.000000
vn 0.000000 1.000000 0.000000
vn 0.000000 1.000000 0.000000
vn 0.000000 1.000000 0.000000
vn 0.000000 1.000000 0.000000
vn 0.000000 1.000000 0.000000
vn 0.000000 1.000000 0.000000
vn 0.000000 1.000000 0.000000
vn 0.000000 1.000000 0.000000
vn 0.000000 1.000000 0.000000
vn 0.000000 1.000000 0.000000
vn 0.000000 1.000000 0.000000
vn 0.000000 1.000000 0.000000
vn 0.000000 1.000000 0.000000
vn 0.000000 1.000000 0.000000
vn 0.000000 1.000000 0.000000
vn 1.000000 0.000000 0.000000
vn 1.000000 0.000000 0.000000
vn 1.000000 0.000000 0.000000
vn 1.000000 0.000000 0.000000
vn 0.000000 0.000000 1.000000
vn 0.000000 0.000000 1.000000
vn 0.000000 0.000000 1.000000
vn 0.000000 0.000000 1.000000
vn -1.000000 0.000000 0.000000
vn -1.000000 0.000000 0.000000
vn -1.000000 0.000000 0.000000
vn -1.000000 0.000000 0.000000
vn 0.000000 0.000000 -1.000000
vn 0.000000 0.000000 -1.000000
vn 0.000000 0.000000 -1.000000
vn 0.000000 0.000000 -1.000000
vn -1.000000 0.000000 0.000000
vn -1.000000 0.000000 0.000000
vn -1.000000 0.000000 0.000000
vn -1.000000 0.000000 0.000000
vn 1.000000 0.000000 0.000000
vn 1.000000 0.000000 0.000000
vn 1.000000 0.000000 0.000000
vn 1.000000 0.000000 0.000000
vn 0.000000 0.000000 1.000000
vn 0.000000 0.000000 1.000000
vn 0.000000 0.000000 1.000000
vn 0.000000 0.000000 1.000000
vn 0.000000 0.000000 -1.000000
vn 0.000000 0.000000 -1.000000
vn 0.000000 0.000000 -1.000000
vn 0.000000 0.000000 -1.000000
vn 0.000000 1.000000 0.000000
vn 0.000000 1.000000 0.000000
vn 0.000000 1.000000 0.000000
vn 0.000000 1.000000 0.000000
vn 0.000000 1.000000 0.000000
vn 0.000000 1.000000 0.000000
vn 0.000000 1.000000 0.000000
vn 0.000000 1.000000 0.000000
vn 0.000000 1.000000 0.000000
vn 0.000000 1.000000 0.000000
vn 0.000000 1.000000 0.000000
vn 0.000000 1.000000 0.000000
vn 0.000000 1.000000 0.000000
vn 0.000000 1.000000 0.000000
vn 0.000000 1.000000 0.000000
vn 0.000000 1.000000 0.000000
s off
g Tombstone_04
usemtl Tombstone_04SG
f 33/1/1 34/2/2 3/3/3 15/4/4
f 34/5/5 31/6/6 16/7/7 3/8/8
f 37/9/9 38/10/10 2/11/11 9/12/12
f 38/13/13 36/14/14 14/15/15 2/16/16
f 41/17/17 42/18/18 1/19/19 12/20/20
f 42/21/21 40/22/22 11/23/23 1/24/24
f 32/25/25 44/26/26 4/27/27 5/28/28
f 44/29/29 43/30/30 13/31/31 4/32/32
f 31/33/33 45/34/34 17/35/35 16/36/36
f 45/37/37 46/38/38 18/39/39 17/40/40
f 46/41/41 32/42/42 5/43/43 18/44/44
f 40/45/45 47/46/46 19/47/47 11/48/48
f 48/49/49 37/50/50 9/51/51 20/52/52
f 43/53/53 49/54/54 21/55/55 13/56/56
f 49/57/57 50/58/58 22/59/59 21/60/60
f 50/61/61 41/62/62 12/63/63 22/64/64
f 36/65/65 51/66/66 23/67/67 14/68/68
f 51/69/69 52/70/70 24/71/71 23/72/72
f 52/73/73 33/74/74 15/75/75 24/76/76
f 47/77/77 53/78/78 25/79/79 19/80/80
f 54/81/81 48/82/82 20/83/83 26/84/84
f 53/85/85 55/86/86 27/87/87 25/88/88
f 56/89/89 54/90/90 26/91/91 28/92/92
f 6/93/93 7/94/94 16/95/95 5/96/96
f 29/97/97 32/98/98 31/99/99 30/100/100
f 7/101/101 15/102/102 3/103/103 16/104/104
f 30/105/105 31/106/106 34/107/107 33/108/108
f 8/109/109 14/110/110 15/111/111 7/112/112
f 35/113/113 30/114/114 33/115/115 36/116/116
f 8/117/117 9/118/118 2/119/119 14/120/120
f 35/121/121 36/122/122 38/123/123 37/124/124
f 8/125/125 10/126/126 11/127/127 9/128/128
f 35/129/129 37/130/130 40/131/131 39/132/132
f 10/133/133 12/134/134 1/135/135 11/136/136
f 39/137/137 40/138/138 42/139/139 41/140/140
f 10/141/141 6/142/142 13/143/143 12/144/144
f 39/145/145 41/146/146 43/147/147 29/148/148
f 6/149/149 5/150/150 4/151/151 13/152/152
f 29/153/153 43/154/154 44/155/155 32/156/156
f 7/157/157 6/158/158 10/159/159 8/160/160
f 30/161/161 35/162/162 39/163/163 29/164/164
f 16/165/165 17/166/166 18/167/167 5/168/168
f 31/169/169 32/170/170 46/171/171 45/172/172
f 11/173/173 19/174/174 20/175/175 9/176/176
f 40/177/177 37/178/178 48/179/179 47/180/180
f 13/181/181 21/182/182 22/183/183 12/184/184
f 43/185/185 41/186/186 50/187/187 49/188/188
f 14/189/189 23/190/190 24/191/191 15/192/192
f 36/193/193 33/194/194 52/195/195 51/196/196
f 19/197/197 25/198/198 26/199/199 20/200/200
f 47/201/201 48/202/202 54/203/203 53/204/204
f 25/205/205 27/206/206 28/207/207 26/208/208
f 53/209/209 54/210/210 56/211/211 55/212/212
f 58/213/213 57/214/214 61/215/215 62/216/216
f 57/217/217 59/218/218 63/219/219 61/220/220
f 59/221/221 60/222/222 64/223/223 63/224/224
f 60/225/225 58/226/226 62/227/227 64/228/228
f 62/229/229 61/230/230 65/231/231 66/232/232
f 61/233/233 63/234/234 67/235/235 65/236/236
f 63/237/237 64/238/238 68/239/239 67/240/240
f 64/241/241 62/242/242 66/243/243 68/244/244
f 68/245/245 66/246/246 70/247/247 72/248/248
f 66/249/249 65/250/250 69/251/251 70/252/252
f 65/253/253 67/254/254 71/255/255 69/256/256
f 67/257/257 68/258/258 72/259/259 71/260/260
f 55/261/261 74/262/262 73/263/263 27/264/264
f 76/265/265 56/266/266 28/267/267 75/268/268
f 27/269/269 73/270/270 75/271/271 28/272/272
f 55/273/273 56/274/274 76/275/275 74/276/276
f 74/277/277 76/278/278 60/279/279 59/280/280
f 76/281/281 75/282/282 58/283/283 60/284/284
f 75/285/285 73/286/286 57/287/287 58/288/288
f 73/289/289 74/290/290 59/291/291 57/292/292
